Geometry.Tolerance = 2.333333333333333e-10;
// Define points
p0 = newp; Point(p0) = {5.9158322081948675, 14.769494030926412, 2.23016048900665, 1.4285714285714286 };
p1 = newp; Point(p1) = {4.060152562529824, 13.922549097512272, 3.3767479088363865, 1.4285714285714286 };
p2 = newp; Point(p2) = {1.3542647059195636, 12.687563298160256, 5.048662014865974, 1.4285714285714286 };
p3 = newp; Point(p3) = {10.450699418194061, 17.76861660414071, 4.7998217562942145, 1.4285714285714286 };
p4 = newp; Point(p4) = {7.989693472439092, 15.832607145651407, 1.6226275222378006, 1.4285714285714286 };
p5 = newp; Point(p5) = {7.296401578231767, 15.399595371915394, 1.3771342268582212, 1.4285714285714286 };
p6 = newp; Point(p6) = {3.677869736786123, 14.477755810359225, 3.168159412189402, 1.4285714285714286 };
p7 = newp; Point(p7) = {1.5527695000322663, 13.671103694055756, 4.915766108870694, 1.4285714285714286 };
p8 = newp; Point(p8) = {3.316179520474959, 14.71009790298482, 4.911481462913282, 1.4285714285714286 };
p9 = newp; Point(p9) = {10.782458712953385, 19.109200070548333, 4.893340269096693, 1.4285714285714286 };
p10 = newp; Point(p10) = {7.699305111992966, 16.353604187289843, 1.2277281327714877, 1.4285714285714286 };
p11 = newp; Point(p11) = {6.917512274694994, 15.707469338255095, 0.5039928490387676, 1.4285714285714286 };
p12 = newp; Point(p12) = {2.6276657548128948, 15.42047445875612, 4.9742414722229125, 1.4285714285714286 };
p13 = newp; Point(p13) = {10.746458640300343, 20.38452646712557, 4.833516220599571, 1.4285714285714286 };
p14 = newp; Point(p14) = {7.414747090297609, 16.85894814716611, 0.7288715978275072, 1.4285714285714286 };
p15 = newp; Point(p15) = {6.598807476711685, 16.150108646331272, 0.15590384620759679, 1.4285714285714286 };
p16 = newp; Point(p16) = {5.5099292793509465, 15.88259291540737, 1.288458885942756, 1.4285714285714286 };
p17 = newp; Point(p17) = {7.114554070178256, 14.30262390731566, 0.9879802501343578, 1.4285714285714286 };
p18 = newp; Point(p18) = {10.288517464352582, 15.14903567348352, 4.71523260318137, 1.4285714285714286 };
p19 = newp; Point(p19) = {7.96724987318808, 15.568364682548417, 5.066108515449686, 1.4285714285714286 };
p20 = newp; Point(p20) = {3.194143984989091, 16.105358090612253, 4.823825894465078, 1.4285714285714286 };
p21 = newp; Point(p21) = {3.5568546469078735, 16.68260033580538, 4.889390458588802, 1.4285714285714286 };
p22 = newp; Point(p22) = {7.680893273213407, 16.095905519650987, 5.061414171030033, 1.4285714285714286 };
p23 = newp; Point(p23) = {10.296604181409021, 15.617938303315269, 4.837312597788828, 1.4285714285714286 };
p24 = newp; Point(p24) = {8.220214271850487, 15.08526590619665, 2.144016811855634, 1.4285714285714286 };
p25 = newp; Point(p25) = {7.740411588228971, 15.032988390354868, 1.7445669065606335, 1.4285714285714286 };
p26 = newp; Point(p26) = {7.565006308848621, 15.063567207702336, 1.7549582750052886, 1.4285714285714286 };
p27 = newp; Point(p27) = {6.548482306807197, 15.32189114567258, 2.0705103325730536, 1.4285714285714286 };
p28 = newp; Point(p28) = {-14.285714285714286, 0.0, 28.571428571428573, 4.285714285714286 };
p29 = newp; Point(p29) = {-14.285714285714286, 0.0, -14.285714285714286, 4.285714285714286 };
p30 = newp; Point(p30) = {-14.285714285714286, 42.857142857142854, -14.285714285714286, 4.285714285714286 };
p31 = newp; Point(p31) = {-14.285714285714286, 42.857142857142854, 28.571428571428573, 4.285714285714286 };
p32 = newp; Point(p32) = {28.571428571428573, 0.0, 28.571428571428573, 4.285714285714286 };
p33 = newp; Point(p33) = {28.571428571428573, 0.0, -14.285714285714286, 4.285714285714286 };
p34 = newp; Point(p34) = {28.571428571428573, 42.857142857142854, -14.285714285714286, 4.285714285714286 };
p35 = newp; Point(p35) = {28.571428571428573, 42.857142857142854, 28.571428571428573, 4.285714285714286 };
p36 = newp; Point(p36) = {6.705505287799188, 15.676639734114534, 4.902274541950043, 1.4285714285714286 };
p37 = newp; Point(p37) = {6.051421560124165, 14.83137794225221, 2.146382534364439, 1.4285714285714286 };
p38 = newp; Point(p38) = {7.425500132979336, 16.078811827259447, 4.882578506183062, 1.4285714285714286 };
p39 = newp; Point(p39) = {6.841311374735664, 15.2474760233267, 1.979609562187985, 1.4285714285714286 };
p40 = newp; Point(p40) = {5.274105277714016, 15.863700014633107, 4.906724192293621, 1.4285714285714286 };
p41 = newp; Point(p41) = {5.057324497727467, 15.24860608585266, 3.0008347534644475, 1.4285714285714286 };
p42 = newp; Point(p42) = {6.021746148043752, 16.304207058160213, 4.904907611693806, 1.4285714285714286 };
p43 = newp; Point(p43) = {5.841327036008866, 15.643533002620286, 2.7368318690331703, 1.4285714285714286 };
p44 = newp; Point(p44) = {3.713735742232716, 16.04690195009084, 4.850200346600789, 1.4285714285714286 };
p45 = newp; Point(p45) = {3.728526257511462, 15.859631452660981, 4.300970410492518, 1.4285714285714286 };
p46 = newp; Point(p46) = {4.48428581780889, 16.550661935219868, 4.9280758753631435, 1.4285714285714286 };
p47 = newp; Point(p47) = {4.533830254513164, 16.23823364351158, 3.9688289994219916, 1.4285714285714286 };
// End of point specification

// Define lines 
frac_line_0 = newl; Line(frac_line_0) = {p0, p1};
Physical Line("FRACTURE_TIP_0") = {frac_line_0};

frac_line_1 = newl; Line(frac_line_1) = {p0, p37};
Physical Line("FRACTURE_TIP_1") = {frac_line_1};

frac_line_2 = newl; Line(frac_line_2) = {p1, p2};
Physical Line("FRACTURE_TIP_2") = {frac_line_2};

frac_line_3 = newl; Line(frac_line_3) = {p2, p36};
Physical Line("FRACTURE_TIP_3") = {frac_line_3};

frac_line_4 = newl; Line(frac_line_4) = {p3, p4};
Physical Line("FRACTURE_TIP_4") = {frac_line_4};

frac_line_5 = newl; Line(frac_line_5) = {p3, p38};
Physical Line("FRACTURE_TIP_5") = {frac_line_5};

frac_line_6 = newl; Line(frac_line_6) = {p4, p5};
Physical Line("FRACTURE_TIP_6") = {frac_line_6};

frac_line_7 = newl; Line(frac_line_7) = {p5, p37};
Physical Line("FRACTURE_TIP_7") = {frac_line_7};

frac_line_8 = newl; Line(frac_line_8) = {p6, p7};
Physical Line("FRACTURE_TIP_8") = {frac_line_8};

frac_line_9 = newl; Line(frac_line_9) = {p6, p11};
Physical Line("FRACTURE_TIP_9") = {frac_line_9};

frac_line_10 = newl; Line(frac_line_10) = {p7, p8};
Physical Line("FRACTURE_TIP_10") = {frac_line_10};

frac_line_11 = newl; Line(frac_line_11) = {p8, p40};
Physical Line("FRACTURE_TIP_11") = {frac_line_11};

frac_line_12 = newl; Line(frac_line_12) = {p9, p10};
Physical Line("FRACTURE_TIP_12") = {frac_line_12};

frac_line_13 = newl; Line(frac_line_13) = {p9, p42};
Physical Line("FRACTURE_TIP_13") = {frac_line_13};

frac_line_14 = newl; Line(frac_line_14) = {p10, p11};
Physical Line("FRACTURE_TIP_14") = {frac_line_14};

frac_line_15 = newl; Line(frac_line_15) = {p12, p13};
Physical Line("FRACTURE_TIP_15") = {frac_line_15};

frac_line_16 = newl; Line(frac_line_16) = {p12, p16};
Physical Line("FRACTURE_TIP_16") = {frac_line_16};

frac_line_17 = newl; Line(frac_line_17) = {p13, p14};
Physical Line("FRACTURE_TIP_17") = {frac_line_17};

frac_line_18 = newl; Line(frac_line_18) = {p14, p15};
Physical Line("FRACTURE_TIP_18") = {frac_line_18};

frac_line_19 = newl; Line(frac_line_19) = {p15, p16};
Physical Line("FRACTURE_TIP_19") = {frac_line_19};

frac_line_20 = newl; Line(frac_line_20) = {p17, p18};
Physical Line("FRACTURE_TIP_20") = {frac_line_20};

frac_line_21 = newl; Line(frac_line_21) = {p17, p41};
Physical Line("FRACTURE_TIP_21") = {frac_line_21};

frac_line_22 = newl; Line(frac_line_22) = {p18, p19};
Physical Line("FRACTURE_TIP_22") = {frac_line_22};

frac_line_23 = newl; Line(frac_line_23) = {p19, p44};
Physical Line("FRACTURE_TIP_23") = {frac_line_23};

frac_line_24 = newl; Line(frac_line_24) = {p20, p44};
Physical Line("FRACTURE_TIP_24") = {frac_line_24};

frac_line_25 = newl; Line(frac_line_25) = {p20, p45};
Physical Line("FRACTURE_TIP_25") = {frac_line_25};

frac_line_26 = newl; Line(frac_line_26) = {p21, p46};
Physical Line("FRACTURE_TIP_26") = {frac_line_26};

frac_line_27 = newl; Line(frac_line_27) = {p21, p47};
Physical Line("FRACTURE_TIP_27") = {frac_line_27};

frac_line_28 = newl; Line(frac_line_28) = {p22, p23};
Physical Line("FRACTURE_TIP_28") = {frac_line_28};

frac_line_29 = newl; Line(frac_line_29) = {p22, p46};
Physical Line("FRACTURE_TIP_29") = {frac_line_29};

frac_line_30 = newl; Line(frac_line_30) = {p23, p24};
Physical Line("FRACTURE_TIP_30") = {frac_line_30};

frac_line_31 = newl; Line(frac_line_31) = {p24, p25};
Physical Line("FRACTURE_TIP_31") = {frac_line_31};

frac_line_32 = newl; Line(frac_line_32) = {p25, p26};
Physical Line("FRACTURE_TIP_32") = {frac_line_32};

frac_line_33 = newl; Line(frac_line_33) = {p26, p39};
Physical Line("FRACTURE_TIP_33") = {frac_line_33};

frac_line_34 = newl; Line(frac_line_34) = {p27, p39};
Physical Line("FRACTURE_TIP_34") = {frac_line_34};

frac_line_35 = newl; Line(frac_line_35) = {p27, p43};
Physical Line("FRACTURE_TIP_35") = {frac_line_35};

frac_line_36 = newl; Line(frac_line_36) = {p28, p29};
Physical Line("DOMAIN_BOUNDARY_36") = {frac_line_36};

frac_line_37 = newl; Line(frac_line_37) = {p28, p31};
Physical Line("DOMAIN_BOUNDARY_37") = {frac_line_37};

frac_line_38 = newl; Line(frac_line_38) = {p28, p32};
Physical Line("DOMAIN_BOUNDARY_38") = {frac_line_38};

frac_line_39 = newl; Line(frac_line_39) = {p29, p30};
Physical Line("DOMAIN_BOUNDARY_39") = {frac_line_39};

frac_line_40 = newl; Line(frac_line_40) = {p29, p33};
Physical Line("DOMAIN_BOUNDARY_40") = {frac_line_40};

frac_line_41 = newl; Line(frac_line_41) = {p30, p31};
Physical Line("DOMAIN_BOUNDARY_41") = {frac_line_41};

frac_line_42 = newl; Line(frac_line_42) = {p30, p34};
Physical Line("DOMAIN_BOUNDARY_42") = {frac_line_42};

frac_line_43 = newl; Line(frac_line_43) = {p31, p35};
Physical Line("DOMAIN_BOUNDARY_43") = {frac_line_43};

frac_line_44 = newl; Line(frac_line_44) = {p32, p33};
Physical Line("DOMAIN_BOUNDARY_44") = {frac_line_44};

frac_line_45 = newl; Line(frac_line_45) = {p32, p35};
Physical Line("DOMAIN_BOUNDARY_45") = {frac_line_45};

frac_line_46 = newl; Line(frac_line_46) = {p33, p34};
Physical Line("DOMAIN_BOUNDARY_46") = {frac_line_46};

frac_line_47 = newl; Line(frac_line_47) = {p34, p35};
Physical Line("DOMAIN_BOUNDARY_47") = {frac_line_47};

frac_line_48 = newl; Line(frac_line_48) = {p36, p37};
Physical Line("FRACTURE_LINE_48") = {frac_line_48};

frac_line_49 = newl; Line(frac_line_49) = {p36, p38};
Physical Line("FRACTURE_TIP_49") = {frac_line_49};

frac_line_50 = newl; Line(frac_line_50) = {p38, p39};
Physical Line("FRACTURE_LINE_50") = {frac_line_50};

frac_line_51 = newl; Line(frac_line_51) = {p40, p41};
Physical Line("FRACTURE_LINE_51") = {frac_line_51};

frac_line_52 = newl; Line(frac_line_52) = {p40, p42};
Physical Line("FRACTURE_TIP_52") = {frac_line_52};

frac_line_53 = newl; Line(frac_line_53) = {p41, p45};
Physical Line("FRACTURE_TIP_53") = {frac_line_53};

frac_line_54 = newl; Line(frac_line_54) = {p42, p43};
Physical Line("FRACTURE_LINE_54") = {frac_line_54};

frac_line_55 = newl; Line(frac_line_55) = {p43, p47};
Physical Line("FRACTURE_TIP_55") = {frac_line_55};

frac_line_56 = newl; Line(frac_line_56) = {p44, p45};
Physical Line("FRACTURE_LINE_56") = {frac_line_56};

frac_line_57 = newl; Line(frac_line_57) = {p46, p47};
Physical Line("FRACTURE_LINE_57") = {frac_line_57};

// End of line specification 

// Start domain specification
// Start boundary surface specification
frac_loop_5 = newll; 
Line Loop(frac_loop_5) = { frac_line_36, frac_line_39, frac_line_41, -frac_line_37};
boundary_surface_5 = news; Plane Surface(boundary_surface_5) = {frac_loop_5};
Physical Surface("DOMAIN_BOUNDARY_SURFACE_5") = {boundary_surface_5};

frac_loop_6 = newll; 
Line Loop(frac_loop_6) = { frac_line_44, frac_line_46, frac_line_47, -frac_line_45};
boundary_surface_6 = news; Plane Surface(boundary_surface_6) = {frac_loop_6};
Physical Surface("DOMAIN_BOUNDARY_SURFACE_6") = {boundary_surface_6};

frac_loop_7 = newll; 
Line Loop(frac_loop_7) = { frac_line_36, frac_line_40, -frac_line_44, -frac_line_38};
boundary_surface_7 = news; Plane Surface(boundary_surface_7) = {frac_loop_7};
Physical Surface("DOMAIN_BOUNDARY_SURFACE_7") = {boundary_surface_7};

frac_loop_8 = newll; 
Line Loop(frac_loop_8) = { frac_line_41, frac_line_43, -frac_line_47, -frac_line_42};
boundary_surface_8 = news; Plane Surface(boundary_surface_8) = {frac_loop_8};
Physical Surface("DOMAIN_BOUNDARY_SURFACE_8") = {boundary_surface_8};

frac_loop_9 = newll; 
Line Loop(frac_loop_9) = { frac_line_39, frac_line_42, -frac_line_46, -frac_line_40};
boundary_surface_9 = news; Plane Surface(boundary_surface_9) = {frac_loop_9};
Physical Surface("DOMAIN_BOUNDARY_SURFACE_9") = {boundary_surface_9};

frac_loop_10 = newll; 
Line Loop(frac_loop_10) = { frac_line_37, frac_line_43, -frac_line_45, -frac_line_38};
boundary_surface_10 = news; Plane Surface(boundary_surface_10) = {frac_loop_10};
Physical Surface("DOMAIN_BOUNDARY_SURFACE_10") = {boundary_surface_10};

domain_loop = newsl;
Surface Loop(domain_loop) = { boundary_surface_5, boundary_surface_6, boundary_surface_7, boundary_surface_8, boundary_surface_9, boundary_surface_10};
Volume(1) = {domain_loop};
Physical Volume("DOMAIN") = {1};
// End of domain specification

// Start fracture specification
frac_loop_0 = newll; 
Line Loop(frac_loop_0) = { frac_line_0, frac_line_2, frac_line_3, frac_line_49, -frac_line_5, frac_line_4, frac_line_6, frac_line_7, -frac_line_1};
fracture_0 = news; Plane Surface(fracture_0) = {frac_loop_0};
Physical Surface("FRACTURE_0") = {fracture_0};
Surface{fracture_0} In Volume{1};

Line{frac_line_48} In Surface{fracture_0};
Line{frac_line_50} In Surface{fracture_0};

frac_loop_1 = newll; 
Line Loop(frac_loop_1) = { frac_line_8, frac_line_10, frac_line_11, frac_line_52, -frac_line_13, frac_line_12, frac_line_14, -frac_line_9};
fracture_1 = news; Plane Surface(fracture_1) = {frac_loop_1};
Physical Surface("FRACTURE_1") = {fracture_1};
Surface{fracture_1} In Volume{1};

Line{frac_line_51} In Surface{fracture_1};
Line{frac_line_54} In Surface{fracture_1};

frac_loop_2 = newll; 
Line Loop(frac_loop_2) = { frac_line_15, frac_line_17, frac_line_18, frac_line_19, -frac_line_16};
fracture_2 = news; Plane Surface(fracture_2) = {frac_loop_2};
Physical Surface("FRACTURE_2") = {fracture_2};
Surface{fracture_2} In Volume{1};

Line{frac_line_56} In Surface{fracture_2};
Line{frac_line_57} In Surface{fracture_2};

frac_loop_3 = newll; 
Line Loop(frac_loop_3) = { frac_line_20, frac_line_22, frac_line_23, -frac_line_24, frac_line_25, -frac_line_53, -frac_line_21};
fracture_3 = news; Plane Surface(fracture_3) = {frac_loop_3};
Physical Surface("FRACTURE_3") = {fracture_3};
Surface{fracture_3} In Volume{1};

Line{frac_line_48} In Surface{fracture_3};
Line{frac_line_51} In Surface{fracture_3};
Line{frac_line_56} In Surface{fracture_3};

frac_loop_4 = newll; 
Line Loop(frac_loop_4) = { frac_line_26, -frac_line_29, frac_line_28, frac_line_30, frac_line_31, frac_line_32, frac_line_33, -frac_line_34, frac_line_35, frac_line_55, -frac_line_27};
fracture_4 = news; Plane Surface(fracture_4) = {frac_loop_4};
Physical Surface("FRACTURE_4") = {fracture_4};
Surface{fracture_4} In Volume{1};

Line{frac_line_50} In Surface{fracture_4};
Line{frac_line_54} In Surface{fracture_4};
Line{frac_line_57} In Surface{fracture_4};

// End of fracture specification

// Start physical point specification
Physical Point("DOMAIN_BOUNDARY_POINT_0") = {p28};
Physical Point("DOMAIN_BOUNDARY_POINT_1") = {p29};
Physical Point("DOMAIN_BOUNDARY_POINT_2") = {p30};
Physical Point("DOMAIN_BOUNDARY_POINT_3") = {p31};
Physical Point("DOMAIN_BOUNDARY_POINT_4") = {p32};
Physical Point("DOMAIN_BOUNDARY_POINT_5") = {p33};
Physical Point("DOMAIN_BOUNDARY_POINT_6") = {p34};
Physical Point("DOMAIN_BOUNDARY_POINT_7") = {p35};
// End of physical point specification

