Geometry.Tolerance = 3.3333333333333335e-11;
// Define points
p0 = newp; Point(p0) = {41.410825457364076, 103.38645821648488, 15.61112342304655, 4.0 };
p1 = newp; Point(p1) = {28.421067937708766, 97.4578436825859, 23.637235361854707, 4.939360978439966 };
p2 = newp; Point(p2) = {9.479852941436945, 88.8129430871218, 35.34063410406182, 4.8843215191813805 };
p3 = newp; Point(p3) = {13.742822765057465, 91.19413721435211, 35.224017149535456, 4.8843215191813805 };
p4 = newp; Point(p4) = {26.517126852730254, 98.32956137440085, 34.87456582791365, 5.718375567067279 };
p5 = newp; Point(p5) = {73.15489592735841, 124.38031622898498, 33.5987522940595, 9.689309812508428 };
p6 = newp; Point(p6) = {55.927854307073645, 110.82825001955985, 11.358392655664604, 5.007367912276212 };
p7 = newp; Point(p7) = {51.07481104762237, 107.79716760340776, 9.639939588007548, 4.007855729789556 };
p8 = newp; Point(p8) = {37.13000733094647, 105.66581348182474, 12.81456411267274, 5.248828701968412 };
p9 = newp; Point(p9) = {32.7039113068591, 103.98574227245619, 16.454427737959918, 5.964763815063542 };
p10 = newp; Point(p10) = {25.745088157502916, 101.34429067251459, 22.177115885325772, 4.939360978439966 };
p11 = newp; Point(p11) = {10.869386500225865, 95.69772585839029, 34.41036276209486, 5.403793121961675 };
p12 = newp; Point(p12) = {23.213256643324705, 102.97068532089374, 34.38037024039298, 5.718375567067279 };
p13 = newp; Point(p13) = {75.47721099067371, 133.76440049383834, 34.25338188367685, 8.940653480087366 };
p14 = newp; Point(p14) = {53.895135783950764, 114.4752293110289, 8.594096929400415, 5.007367912276212 };
p15 = newp; Point(p15) = {48.42258592286497, 109.95228536778566, 3.5279499432713717, 4.529320556218468 };
p16 = newp; Point(p16) = {35.999952415157594, 110.76616946159248, 12.30510605791627, 4.19159003152973 };
p17 = newp; Point(p17) = {18.393660283690263, 107.94332121129284, 34.819690305560385, 6.310056497649697 };
p18 = newp; Point(p18) = {30.739633735308395, 115.49198702555832, 34.605694180148724, 4.0 };
p19 = newp; Point(p19) = {75.2252104821024, 142.691685269879, 33.834613544197, 8.940653480087366 };
p20 = newp; Point(p20) = {51.90322963208326, 118.01263703016276, 5.10210118479255, 5.35490221849054 };
p21 = newp; Point(p21) = {46.1916523369818, 113.0507605243189, 1.0913269234531775, 4.529320556218468 };
p22 = newp; Point(p22) = {38.56950495545662, 111.17815040785159, 9.019212201599291, 4.19159003152973 };
p23 = newp; Point(p23) = {49.80187849124779, 100.11836735120961, 6.915861750940504, 8.193879642862097 };
p24 = newp; Point(p24) = {72.01962225046807, 106.04324971438463, 33.00662822226958, 4.0 };
p25 = newp; Point(p25) = {55.77074911231656, 108.97855277783891, 35.462759608147806, 4.201874846713522 };
p26 = newp; Point(p26) = {22.35900789492364, 112.73750663428578, 33.766781261255545, 4.0 };
p27 = newp; Point(p27) = {24.897982528355115, 116.77820235063764, 34.22573321012162, 4.591594390498032 };
p28 = newp; Point(p28) = {53.76625291249385, 112.6713386375569, 35.42989919721023, 4.0 };
p29 = newp; Point(p29) = {61.82543863828948, 111.19868867642327, 34.73942679273502, 6.489335792356729 };
p30 = newp; Point(p30) = {72.07622926986315, 109.32556812320688, 33.861188184521794, 4.0 };
p31 = newp; Point(p31) = {57.54149990295341, 105.59686134337655, 15.008117682989438, 4.38550855146195 };
p32 = newp; Point(p32) = {54.1828811176028, 105.23091873248407, 12.211968345924436, 4.0 };
p33 = newp; Point(p33) = {52.95504416194034, 105.44497045391635, 12.284707925037019, 4.0 };
p34 = newp; Point(p34) = {45.839376147650384, 107.25323801970806, 14.493572328011375, 4.0 };
p35 = newp; Point(p35) = {-100.0, 0.0, 200.0, 60.0 };
p36 = newp; Point(p36) = {-100.0, 0.0, -100.0, 60.0 };
p37 = newp; Point(p37) = {-100.0, 300.0, -100.0, 60.0 };
p38 = newp; Point(p38) = {-100.0, 300.0, 200.0, 60.0 };
p39 = newp; Point(p39) = {200.0, 0.0, 200.0, 60.0 };
p40 = newp; Point(p40) = {200.0, 0.0, -100.0, 60.0 };
p41 = newp; Point(p41) = {200.0, 300.0, -100.0, 60.0 };
p42 = newp; Point(p42) = {200.0, 300.0, 200.0, 60.0 };
p43 = newp; Point(p43) = {46.93853701459431, 109.73647813880174, 34.315921793650304, 5.7745668467304165 };
p44 = newp; Point(p44) = {42.35995092086917, 103.81964559576548, 15.024677740551066, 4.0 };
p45 = newp; Point(p45) = {51.97850093085531, 112.55168279081612, 34.17804954328144, 4.0 };
p46 = newp; Point(p46) = {47.88917962314965, 106.7323321632869, 13.857266935315893, 4.0 };
p47 = newp; Point(p47) = {36.91873694399813, 111.04590010243174, 34.34706934605535, 6.074357142210525 };
p48 = newp; Point(p48) = {35.40127148409228, 106.74024260096861, 21.00584327425112, 5.964763815063542 };
p49 = newp; Point(p49) = {42.15222303630627, 114.12944940712148, 34.33435328185664, 6.074357142210525 };
p50 = newp; Point(p50) = {40.88928925206206, 109.504731018342, 19.157823083232195, 6.416846098961492 };
p51 = newp; Point(p51) = {25.996150195629028, 112.3283136506359, 33.95140242620552, 4.0 };
p52 = newp; Point(p52) = {26.099683802580252, 111.01742016862687, 30.106792873447606, 4.06327251634683 };
p53 = newp; Point(p53) = {31.390000724662208, 115.85463354653906, 34.496531127542006, 4.0 };
p54 = newp; Point(p54) = {31.736811781592152, 113.66763550458107, 27.781802995953935, 6.64879170294375 };
// End of point specification

// Define lines 
frac_line_0 = newl; Line(frac_line_0) = {p0, p1};
Physical Line("FRACTURE_TIP_0") = {frac_line_0};

frac_line_1 = newl; Line(frac_line_1) = {p0, p44};
Physical Line("FRACTURE_TIP_1") = {frac_line_1};

frac_line_2 = newl; Line(frac_line_2) = {p1, p2};
Physical Line("FRACTURE_TIP_2") = {frac_line_2};

frac_line_3 = newl; Line(frac_line_3) = {p2, p3};
Physical Line("FRACTURE_TIP_3") = {frac_line_3};

frac_line_4 = newl; Line(frac_line_4) = {p3, p4};
Physical Line("FRACTURE_TIP_4") = {frac_line_4};

frac_line_5 = newl; Line(frac_line_5) = {p4, p43};
Physical Line("FRACTURE_TIP_5") = {frac_line_5};

frac_line_6 = newl; Line(frac_line_6) = {p5, p6};
Physical Line("FRACTURE_TIP_6") = {frac_line_6};

frac_line_7 = newl; Line(frac_line_7) = {p5, p45};
Physical Line("FRACTURE_TIP_7") = {frac_line_7};

frac_line_8 = newl; Line(frac_line_8) = {p6, p7};
Physical Line("FRACTURE_TIP_8") = {frac_line_8};

frac_line_9 = newl; Line(frac_line_9) = {p7, p44};
Physical Line("FRACTURE_TIP_9") = {frac_line_9};

frac_line_10 = newl; Line(frac_line_10) = {p8, p9};
Physical Line("FRACTURE_TIP_10") = {frac_line_10};

frac_line_11 = newl; Line(frac_line_11) = {p8, p15};
Physical Line("FRACTURE_TIP_11") = {frac_line_11};

frac_line_12 = newl; Line(frac_line_12) = {p9, p10};
Physical Line("FRACTURE_TIP_12") = {frac_line_12};

frac_line_13 = newl; Line(frac_line_13) = {p10, p11};
Physical Line("FRACTURE_TIP_13") = {frac_line_13};

frac_line_14 = newl; Line(frac_line_14) = {p11, p12};
Physical Line("FRACTURE_TIP_14") = {frac_line_14};

frac_line_15 = newl; Line(frac_line_15) = {p12, p47};
Physical Line("FRACTURE_TIP_15") = {frac_line_15};

frac_line_16 = newl; Line(frac_line_16) = {p13, p14};
Physical Line("FRACTURE_TIP_16") = {frac_line_16};

frac_line_17 = newl; Line(frac_line_17) = {p13, p49};
Physical Line("FRACTURE_TIP_17") = {frac_line_17};

frac_line_18 = newl; Line(frac_line_18) = {p14, p15};
Physical Line("FRACTURE_TIP_18") = {frac_line_18};

frac_line_19 = newl; Line(frac_line_19) = {p16, p17};
Physical Line("FRACTURE_TIP_19") = {frac_line_19};

frac_line_20 = newl; Line(frac_line_20) = {p16, p22};
Physical Line("FRACTURE_TIP_20") = {frac_line_20};

frac_line_21 = newl; Line(frac_line_21) = {p17, p18};
Physical Line("FRACTURE_TIP_21") = {frac_line_21};

frac_line_22 = newl; Line(frac_line_22) = {p18, p19};
Physical Line("FRACTURE_TIP_22") = {frac_line_22};

frac_line_23 = newl; Line(frac_line_23) = {p19, p20};
Physical Line("FRACTURE_TIP_23") = {frac_line_23};

frac_line_24 = newl; Line(frac_line_24) = {p20, p21};
Physical Line("FRACTURE_TIP_24") = {frac_line_24};

frac_line_25 = newl; Line(frac_line_25) = {p21, p22};
Physical Line("FRACTURE_TIP_25") = {frac_line_25};

frac_line_26 = newl; Line(frac_line_26) = {p23, p24};
Physical Line("FRACTURE_TIP_26") = {frac_line_26};

frac_line_27 = newl; Line(frac_line_27) = {p23, p48};
Physical Line("FRACTURE_TIP_27") = {frac_line_27};

frac_line_28 = newl; Line(frac_line_28) = {p24, p25};
Physical Line("FRACTURE_TIP_28") = {frac_line_28};

frac_line_29 = newl; Line(frac_line_29) = {p25, p51};
Physical Line("FRACTURE_TIP_29") = {frac_line_29};

frac_line_30 = newl; Line(frac_line_30) = {p26, p51};
Physical Line("FRACTURE_TIP_30") = {frac_line_30};

frac_line_31 = newl; Line(frac_line_31) = {p26, p52};
Physical Line("FRACTURE_TIP_31") = {frac_line_31};

frac_line_32 = newl; Line(frac_line_32) = {p27, p53};
Physical Line("FRACTURE_TIP_32") = {frac_line_32};

frac_line_33 = newl; Line(frac_line_33) = {p27, p54};
Physical Line("FRACTURE_TIP_33") = {frac_line_33};

frac_line_34 = newl; Line(frac_line_34) = {p28, p29};
Physical Line("FRACTURE_TIP_34") = {frac_line_34};

frac_line_35 = newl; Line(frac_line_35) = {p28, p53};
Physical Line("FRACTURE_TIP_35") = {frac_line_35};

frac_line_36 = newl; Line(frac_line_36) = {p29, p30};
Physical Line("FRACTURE_TIP_36") = {frac_line_36};

frac_line_37 = newl; Line(frac_line_37) = {p30, p31};
Physical Line("FRACTURE_TIP_37") = {frac_line_37};

frac_line_38 = newl; Line(frac_line_38) = {p31, p32};
Physical Line("FRACTURE_TIP_38") = {frac_line_38};

frac_line_39 = newl; Line(frac_line_39) = {p32, p33};
Physical Line("FRACTURE_TIP_39") = {frac_line_39};

frac_line_40 = newl; Line(frac_line_40) = {p33, p46};
Physical Line("FRACTURE_TIP_40") = {frac_line_40};

frac_line_41 = newl; Line(frac_line_41) = {p34, p46};
Physical Line("FRACTURE_TIP_41") = {frac_line_41};

frac_line_42 = newl; Line(frac_line_42) = {p34, p50};
Physical Line("FRACTURE_TIP_42") = {frac_line_42};

frac_line_43 = newl; Line(frac_line_43) = {p35, p36};
Physical Line("DOMAIN_BOUNDARY_43") = {frac_line_43};

frac_line_44 = newl; Line(frac_line_44) = {p35, p38};
Physical Line("DOMAIN_BOUNDARY_44") = {frac_line_44};

frac_line_45 = newl; Line(frac_line_45) = {p35, p39};
Physical Line("DOMAIN_BOUNDARY_45") = {frac_line_45};

frac_line_46 = newl; Line(frac_line_46) = {p36, p37};
Physical Line("DOMAIN_BOUNDARY_46") = {frac_line_46};

frac_line_47 = newl; Line(frac_line_47) = {p36, p40};
Physical Line("DOMAIN_BOUNDARY_47") = {frac_line_47};

frac_line_48 = newl; Line(frac_line_48) = {p37, p38};
Physical Line("DOMAIN_BOUNDARY_48") = {frac_line_48};

frac_line_49 = newl; Line(frac_line_49) = {p37, p41};
Physical Line("DOMAIN_BOUNDARY_49") = {frac_line_49};

frac_line_50 = newl; Line(frac_line_50) = {p38, p42};
Physical Line("DOMAIN_BOUNDARY_50") = {frac_line_50};

frac_line_51 = newl; Line(frac_line_51) = {p39, p40};
Physical Line("DOMAIN_BOUNDARY_51") = {frac_line_51};

frac_line_52 = newl; Line(frac_line_52) = {p39, p42};
Physical Line("DOMAIN_BOUNDARY_52") = {frac_line_52};

frac_line_53 = newl; Line(frac_line_53) = {p40, p41};
Physical Line("DOMAIN_BOUNDARY_53") = {frac_line_53};

frac_line_54 = newl; Line(frac_line_54) = {p41, p42};
Physical Line("DOMAIN_BOUNDARY_54") = {frac_line_54};

frac_line_55 = newl; Line(frac_line_55) = {p43, p44};
Physical Line("FRACTURE_LINE_55") = {frac_line_55};

frac_line_56 = newl; Line(frac_line_56) = {p43, p45};
Physical Line("FRACTURE_TIP_56") = {frac_line_56};

frac_line_57 = newl; Line(frac_line_57) = {p45, p46};
Physical Line("FRACTURE_LINE_57") = {frac_line_57};

frac_line_58 = newl; Line(frac_line_58) = {p47, p48};
Physical Line("FRACTURE_LINE_58") = {frac_line_58};

frac_line_59 = newl; Line(frac_line_59) = {p47, p49};
Physical Line("FRACTURE_TIP_59") = {frac_line_59};

frac_line_60 = newl; Line(frac_line_60) = {p48, p52};
Physical Line("FRACTURE_TIP_60") = {frac_line_60};

frac_line_61 = newl; Line(frac_line_61) = {p49, p50};
Physical Line("FRACTURE_LINE_61") = {frac_line_61};

frac_line_62 = newl; Line(frac_line_62) = {p50, p54};
Physical Line("FRACTURE_TIP_62") = {frac_line_62};

frac_line_63 = newl; Line(frac_line_63) = {p51, p52};
Physical Line("FRACTURE_LINE_63") = {frac_line_63};

frac_line_64 = newl; Line(frac_line_64) = {p53, p54};
Physical Line("FRACTURE_LINE_64") = {frac_line_64};

// End of line specification 

// Start domain specification
// Start boundary surface specification
frac_loop_5 = newll; 
Line Loop(frac_loop_5) = { frac_line_43, frac_line_46, frac_line_48, -frac_line_44};
boundary_surface_5 = news; Plane Surface(boundary_surface_5) = {frac_loop_5};
Physical Surface("DOMAIN_BOUNDARY_SURFACE_5") = {boundary_surface_5};

frac_loop_6 = newll; 
Line Loop(frac_loop_6) = { frac_line_51, frac_line_53, frac_line_54, -frac_line_52};
boundary_surface_6 = news; Plane Surface(boundary_surface_6) = {frac_loop_6};
Physical Surface("DOMAIN_BOUNDARY_SURFACE_6") = {boundary_surface_6};

frac_loop_7 = newll; 
Line Loop(frac_loop_7) = { frac_line_43, frac_line_47, -frac_line_51, -frac_line_45};
boundary_surface_7 = news; Plane Surface(boundary_surface_7) = {frac_loop_7};
Physical Surface("DOMAIN_BOUNDARY_SURFACE_7") = {boundary_surface_7};

frac_loop_8 = newll; 
Line Loop(frac_loop_8) = { frac_line_48, frac_line_50, -frac_line_54, -frac_line_49};
boundary_surface_8 = news; Plane Surface(boundary_surface_8) = {frac_loop_8};
Physical Surface("DOMAIN_BOUNDARY_SURFACE_8") = {boundary_surface_8};

frac_loop_9 = newll; 
Line Loop(frac_loop_9) = { frac_line_46, frac_line_49, -frac_line_53, -frac_line_47};
boundary_surface_9 = news; Plane Surface(boundary_surface_9) = {frac_loop_9};
Physical Surface("DOMAIN_BOUNDARY_SURFACE_9") = {boundary_surface_9};

frac_loop_10 = newll; 
Line Loop(frac_loop_10) = { frac_line_44, frac_line_50, -frac_line_52, -frac_line_45};
boundary_surface_10 = news; Plane Surface(boundary_surface_10) = {frac_loop_10};
Physical Surface("DOMAIN_BOUNDARY_SURFACE_10") = {boundary_surface_10};

domain_loop = newsl;
Surface Loop(domain_loop) = { boundary_surface_5, boundary_surface_6, boundary_surface_7, boundary_surface_8, boundary_surface_9, boundary_surface_10};
Volume(1) = {domain_loop};
Physical Volume("DOMAIN") = {1};
// End of domain specification

// Start fracture specification
frac_loop_0 = newll; 
Line Loop(frac_loop_0) = { frac_line_0, frac_line_2, frac_line_3, frac_line_4, frac_line_5, frac_line_56, -frac_line_7, frac_line_6, frac_line_8, frac_line_9, -frac_line_1};
fracture_0 = news; Plane Surface(fracture_0) = {frac_loop_0};
Physical Surface("FRACTURE_0") = {fracture_0};
Surface{fracture_0} In Volume{1};

Line{frac_line_55} In Surface{fracture_0};
Line{frac_line_57} In Surface{fracture_0};

frac_loop_1 = newll; 
Line Loop(frac_loop_1) = { frac_line_10, frac_line_12, frac_line_13, frac_line_14, frac_line_15, frac_line_59, -frac_line_17, frac_line_16, frac_line_18, -frac_line_11};
fracture_1 = news; Plane Surface(fracture_1) = {frac_loop_1};
Physical Surface("FRACTURE_1") = {fracture_1};
Surface{fracture_1} In Volume{1};

Line{frac_line_58} In Surface{fracture_1};
Line{frac_line_61} In Surface{fracture_1};

frac_loop_2 = newll; 
Line Loop(frac_loop_2) = { frac_line_19, frac_line_21, frac_line_22, frac_line_23, frac_line_24, frac_line_25, -frac_line_20};
fracture_2 = news; Plane Surface(fracture_2) = {frac_loop_2};
Physical Surface("FRACTURE_2") = {fracture_2};
Surface{fracture_2} In Volume{1};

Line{frac_line_63} In Surface{fracture_2};
Line{frac_line_64} In Surface{fracture_2};

frac_loop_3 = newll; 
Line Loop(frac_loop_3) = { frac_line_26, frac_line_28, frac_line_29, -frac_line_30, frac_line_31, -frac_line_60, -frac_line_27};
fracture_3 = news; Plane Surface(fracture_3) = {frac_loop_3};
Physical Surface("FRACTURE_3") = {fracture_3};
Surface{fracture_3} In Volume{1};

Line{frac_line_55} In Surface{fracture_3};
Line{frac_line_58} In Surface{fracture_3};
Line{frac_line_63} In Surface{fracture_3};

frac_loop_4 = newll; 
Line Loop(frac_loop_4) = { frac_line_32, -frac_line_35, frac_line_34, frac_line_36, frac_line_37, frac_line_38, frac_line_39, frac_line_40, -frac_line_41, frac_line_42, frac_line_62, -frac_line_33};
fracture_4 = news; Plane Surface(fracture_4) = {frac_loop_4};
Physical Surface("FRACTURE_4") = {fracture_4};
Surface{fracture_4} In Volume{1};

Line{frac_line_57} In Surface{fracture_4};
Line{frac_line_61} In Surface{fracture_4};
Line{frac_line_64} In Surface{fracture_4};

// End of fracture specification

// Start physical point specification
Physical Point("DOMAIN_BOUNDARY_POINT_0") = {p35};
Physical Point("DOMAIN_BOUNDARY_POINT_1") = {p36};
Physical Point("DOMAIN_BOUNDARY_POINT_2") = {p37};
Physical Point("DOMAIN_BOUNDARY_POINT_3") = {p38};
Physical Point("DOMAIN_BOUNDARY_POINT_4") = {p39};
Physical Point("DOMAIN_BOUNDARY_POINT_5") = {p40};
Physical Point("DOMAIN_BOUNDARY_POINT_6") = {p41};
Physical Point("DOMAIN_BOUNDARY_POINT_7") = {p42};
// End of physical point specification

