Geometry.Tolerance = 6.666666666666667e-12;
// Define points
p0 = newp; Point(p0) = {207.0541272868204, 516.9322910824244, 78.0556171152327, 20.0 };
p1 = newp; Point(p1) = {142.10533968854241, 487.28921841292885, 118.18617680927439, 24.69680489219981 };
p2 = newp; Point(p2) = {47.39926470718473, 444.06471543560895, 176.7031705203091, 24.421607595906664 };
p3 = newp; Point(p3) = {68.71411382528713, 455.9706860717604, 176.12008574767728, 24.421607595906664 };
p4 = newp; Point(p4) = {132.5856342636512, 491.64780687200414, 174.37282913956824, 28.59187783533649 };
p5 = newp; Point(p5) = {365.774479636792, 621.9015811449249, 167.9937614702975, 48.44654906254209 };
p6 = newp; Point(p6) = {279.6392715353682, 554.1412500977992, 56.79196327832302, 25.036839561381054 };
p7 = newp; Point(p7) = {255.37405523811182, 538.9858380170388, 48.19969794003774, 20.03927864894776 };
p8 = newp; Point(p8) = {185.65003665473236, 528.3290674091236, 64.07282056336368, 26.244143509842132 };
p9 = newp; Point(p9) = {163.5195565342955, 519.9287113622809, 82.27213868979956, 29.82381907531779 };
p10 = newp; Point(p10) = {128.725440787514, 506.7214533625727, 110.8855794266293, 24.69680489219981 };
p11 = newp; Point(p11) = {54.346932501129324, 478.4886292919514, 172.0518138104743, 27.01896560980838 };
p12 = newp; Point(p12) = {116.06628321662355, 514.8534266044687, 171.90185120196486, 28.59187783533649 };
p13 = newp; Point(p13) = {377.38605495336856, 668.8220024691916, 171.26690941838424, 44.70326740043683 };
p14 = newp; Point(p14) = {269.4756789197538, 572.3761465551445, 42.970484647002074, 25.036839561381054 };
p15 = newp; Point(p15) = {242.11292961432483, 549.7614268389283, 17.639749716356857, 22.646602781092312 };
p16 = newp; Point(p16) = {179.99976207578794, 553.8308473079624, 61.52553028958137, 20.95795015764868 };
p17 = newp; Point(p17) = {91.9683014184513, 539.7166060564641, 174.09845152780193, 31.55028248824853 };
p18 = newp; Point(p18) = {153.69816867654202, 577.4599351277916, 173.02847090074363, 20.0 };
p19 = newp; Point(p19) = {376.126052410512, 713.4584263493949, 169.173067720985, 44.70326740043683 };
p20 = newp; Point(p20) = {259.51614816041626, 590.0631851508138, 25.51050592396275, 26.774511092452666 };
p21 = newp; Point(p21) = {230.95826168490896, 565.2538026215944, 5.4566346172658875, 22.646602781092312 };
p22 = newp; Point(p22) = {192.8475247772831, 555.8907520392579, 45.096061007996454, 20.95795015764868 };
p23 = newp; Point(p23) = {249.00939245623894, 500.59183675604805, 34.57930875470252, 40.9693982143105 };
p24 = newp; Point(p24) = {360.09811125234035, 530.2162485719231, 165.0331411113479, 20.0 };
p25 = newp; Point(p25) = {278.8537455615828, 544.8927638891945, 177.31379804073902, 21.009374233567634 };
p26 = newp; Point(p26) = {111.79503947461819, 563.6875331714289, 168.83390630627773, 20.0 };
p27 = newp; Point(p27) = {124.48991264177558, 583.8910117531882, 171.12866605060808, 22.957971952490222 };
p28 = newp; Point(p28) = {268.83126456246924, 563.3566931877845, 177.14949598605116, 20.0 };
p29 = newp; Point(p29) = {309.12719319145054, 555.9934433821157, 173.69713396367482, 32.446678961786425 };
p30 = newp; Point(p30) = {360.3811463493157, 546.6278406160344, 169.30594092260895, 20.0 };
p31 = newp; Point(p31) = {287.70749951476705, 527.9843067168827, 75.04058841494718, 21.927542757309762 };
p32 = newp; Point(p32) = {270.91440558801395, 526.1545936624203, 61.05984172962218, 20.0 };
p33 = newp; Point(p33) = {264.7752208097017, 527.2248522695818, 61.42353962518509, 20.0 };
p34 = newp; Point(p34) = {229.1968807382519, 536.2661900985403, 72.46786164005687, 20.0 };
p35 = newp; Point(p35) = {-500.0, 0.0, 1000.0, 300.0 };
p36 = newp; Point(p36) = {-500.0, 0.0, -500.0, 300.0 };
p37 = newp; Point(p37) = {-500.0, 1500.0, -500.0, 300.0 };
p38 = newp; Point(p38) = {-500.0, 1500.0, 1000.0, 300.0 };
p39 = newp; Point(p39) = {1000.0, 0.0, 1000.0, 300.0 };
p40 = newp; Point(p40) = {1000.0, 0.0, -500.0, 300.0 };
p41 = newp; Point(p41) = {1000.0, 1500.0, -500.0, 300.0 };
p42 = newp; Point(p42) = {1000.0, 1500.0, 1000.0, 300.0 };
p43 = newp; Point(p43) = {234.69268507297144, 548.6823906940086, 171.5796089682515, 28.87283423365218 };
p44 = newp; Point(p44) = {211.79975460434576, 519.0982279788274, 75.12338870275536, 20.0 };
p45 = newp; Point(p45) = {259.89250465427654, 562.7584139540805, 170.89024771640717, 20.0 };
p46 = newp; Point(p46) = {239.44589811574835, 533.6616608164344, 69.28633467657943, 20.0 };
p47 = newp; Point(p47) = {184.59368471999062, 555.2295005121587, 171.73534673027672, 30.37178571105258 };
p48 = newp; Point(p48) = {177.00635742046137, 533.7012130048431, 105.02921637125561, 29.82381907531779 };
p49 = newp; Point(p49) = {210.76111518153132, 570.6472470356073, 171.6717664092832, 30.37178571105258 };
p50 = newp; Point(p50) = {204.4464462603103, 547.52365509171, 95.78911541616097, 32.08423049480744 };
p51 = newp; Point(p51) = {129.98075097814518, 561.6415682531795, 169.7570121310276, 20.0 };
p52 = newp; Point(p52) = {130.49841901290134, 555.0871008431343, 150.53396436723793, 20.316362581734257 };
p53 = newp; Point(p53) = {156.95000362331112, 579.2731677326952, 172.48265563771002, 20.0 };
p54 = newp; Point(p54) = {158.68405890796083, 568.3381775229053, 138.90901497976958, 33.24395851471875 };
// End of point specification

// Define lines 
frac_line_0 = newl; Line(frac_line_0) = {p0, p1};
Physical Line("FRACTURE_TIP_0") = {frac_line_0};

frac_line_1 = newl; Line(frac_line_1) = {p0, p44};
Physical Line("FRACTURE_TIP_1") = {frac_line_1};

frac_line_2 = newl; Line(frac_line_2) = {p1, p2};
Physical Line("FRACTURE_TIP_2") = {frac_line_2};

frac_line_3 = newl; Line(frac_line_3) = {p2, p3};
Physical Line("FRACTURE_TIP_3") = {frac_line_3};

frac_line_4 = newl; Line(frac_line_4) = {p3, p4};
Physical Line("FRACTURE_TIP_4") = {frac_line_4};

frac_line_5 = newl; Line(frac_line_5) = {p4, p43};
Physical Line("FRACTURE_TIP_5") = {frac_line_5};

frac_line_6 = newl; Line(frac_line_6) = {p5, p6};
Physical Line("FRACTURE_TIP_6") = {frac_line_6};

frac_line_7 = newl; Line(frac_line_7) = {p5, p45};
Physical Line("FRACTURE_TIP_7") = {frac_line_7};

frac_line_8 = newl; Line(frac_line_8) = {p6, p7};
Physical Line("FRACTURE_TIP_8") = {frac_line_8};

frac_line_9 = newl; Line(frac_line_9) = {p7, p44};
Physical Line("FRACTURE_TIP_9") = {frac_line_9};

frac_line_10 = newl; Line(frac_line_10) = {p8, p9};
Physical Line("FRACTURE_TIP_10") = {frac_line_10};

frac_line_11 = newl; Line(frac_line_11) = {p8, p15};
Physical Line("FRACTURE_TIP_11") = {frac_line_11};

frac_line_12 = newl; Line(frac_line_12) = {p9, p10};
Physical Line("FRACTURE_TIP_12") = {frac_line_12};

frac_line_13 = newl; Line(frac_line_13) = {p10, p11};
Physical Line("FRACTURE_TIP_13") = {frac_line_13};

frac_line_14 = newl; Line(frac_line_14) = {p11, p12};
Physical Line("FRACTURE_TIP_14") = {frac_line_14};

frac_line_15 = newl; Line(frac_line_15) = {p12, p47};
Physical Line("FRACTURE_TIP_15") = {frac_line_15};

frac_line_16 = newl; Line(frac_line_16) = {p13, p14};
Physical Line("FRACTURE_TIP_16") = {frac_line_16};

frac_line_17 = newl; Line(frac_line_17) = {p13, p49};
Physical Line("FRACTURE_TIP_17") = {frac_line_17};

frac_line_18 = newl; Line(frac_line_18) = {p14, p15};
Physical Line("FRACTURE_TIP_18") = {frac_line_18};

frac_line_19 = newl; Line(frac_line_19) = {p16, p17};
Physical Line("FRACTURE_TIP_19") = {frac_line_19};

frac_line_20 = newl; Line(frac_line_20) = {p16, p22};
Physical Line("FRACTURE_TIP_20") = {frac_line_20};

frac_line_21 = newl; Line(frac_line_21) = {p17, p18};
Physical Line("FRACTURE_TIP_21") = {frac_line_21};

frac_line_22 = newl; Line(frac_line_22) = {p18, p19};
Physical Line("FRACTURE_TIP_22") = {frac_line_22};

frac_line_23 = newl; Line(frac_line_23) = {p19, p20};
Physical Line("FRACTURE_TIP_23") = {frac_line_23};

frac_line_24 = newl; Line(frac_line_24) = {p20, p21};
Physical Line("FRACTURE_TIP_24") = {frac_line_24};

frac_line_25 = newl; Line(frac_line_25) = {p21, p22};
Physical Line("FRACTURE_TIP_25") = {frac_line_25};

frac_line_26 = newl; Line(frac_line_26) = {p23, p24};
Physical Line("FRACTURE_TIP_26") = {frac_line_26};

frac_line_27 = newl; Line(frac_line_27) = {p23, p48};
Physical Line("FRACTURE_TIP_27") = {frac_line_27};

frac_line_28 = newl; Line(frac_line_28) = {p24, p25};
Physical Line("FRACTURE_TIP_28") = {frac_line_28};

frac_line_29 = newl; Line(frac_line_29) = {p25, p51};
Physical Line("FRACTURE_TIP_29") = {frac_line_29};

frac_line_30 = newl; Line(frac_line_30) = {p26, p51};
Physical Line("FRACTURE_TIP_30") = {frac_line_30};

frac_line_31 = newl; Line(frac_line_31) = {p26, p52};
Physical Line("FRACTURE_TIP_31") = {frac_line_31};

frac_line_32 = newl; Line(frac_line_32) = {p27, p53};
Physical Line("FRACTURE_TIP_32") = {frac_line_32};

frac_line_33 = newl; Line(frac_line_33) = {p27, p54};
Physical Line("FRACTURE_TIP_33") = {frac_line_33};

frac_line_34 = newl; Line(frac_line_34) = {p28, p29};
Physical Line("FRACTURE_TIP_34") = {frac_line_34};

frac_line_35 = newl; Line(frac_line_35) = {p28, p53};
Physical Line("FRACTURE_TIP_35") = {frac_line_35};

frac_line_36 = newl; Line(frac_line_36) = {p29, p30};
Physical Line("FRACTURE_TIP_36") = {frac_line_36};

frac_line_37 = newl; Line(frac_line_37) = {p30, p31};
Physical Line("FRACTURE_TIP_37") = {frac_line_37};

frac_line_38 = newl; Line(frac_line_38) = {p31, p32};
Physical Line("FRACTURE_TIP_38") = {frac_line_38};

frac_line_39 = newl; Line(frac_line_39) = {p32, p33};
Physical Line("FRACTURE_TIP_39") = {frac_line_39};

frac_line_40 = newl; Line(frac_line_40) = {p33, p46};
Physical Line("FRACTURE_TIP_40") = {frac_line_40};

frac_line_41 = newl; Line(frac_line_41) = {p34, p46};
Physical Line("FRACTURE_TIP_41") = {frac_line_41};

frac_line_42 = newl; Line(frac_line_42) = {p34, p50};
Physical Line("FRACTURE_TIP_42") = {frac_line_42};

frac_line_43 = newl; Line(frac_line_43) = {p35, p36};
Physical Line("DOMAIN_BOUNDARY_43") = {frac_line_43};

frac_line_44 = newl; Line(frac_line_44) = {p35, p38};
Physical Line("DOMAIN_BOUNDARY_44") = {frac_line_44};

frac_line_45 = newl; Line(frac_line_45) = {p35, p39};
Physical Line("DOMAIN_BOUNDARY_45") = {frac_line_45};

frac_line_46 = newl; Line(frac_line_46) = {p36, p37};
Physical Line("DOMAIN_BOUNDARY_46") = {frac_line_46};

frac_line_47 = newl; Line(frac_line_47) = {p36, p40};
Physical Line("DOMAIN_BOUNDARY_47") = {frac_line_47};

frac_line_48 = newl; Line(frac_line_48) = {p37, p38};
Physical Line("DOMAIN_BOUNDARY_48") = {frac_line_48};

frac_line_49 = newl; Line(frac_line_49) = {p37, p41};
Physical Line("DOMAIN_BOUNDARY_49") = {frac_line_49};

frac_line_50 = newl; Line(frac_line_50) = {p38, p42};
Physical Line("DOMAIN_BOUNDARY_50") = {frac_line_50};

frac_line_51 = newl; Line(frac_line_51) = {p39, p40};
Physical Line("DOMAIN_BOUNDARY_51") = {frac_line_51};

frac_line_52 = newl; Line(frac_line_52) = {p39, p42};
Physical Line("DOMAIN_BOUNDARY_52") = {frac_line_52};

frac_line_53 = newl; Line(frac_line_53) = {p40, p41};
Physical Line("DOMAIN_BOUNDARY_53") = {frac_line_53};

frac_line_54 = newl; Line(frac_line_54) = {p41, p42};
Physical Line("DOMAIN_BOUNDARY_54") = {frac_line_54};

frac_line_55 = newl; Line(frac_line_55) = {p43, p44};
Physical Line("FRACTURE_LINE_55") = {frac_line_55};

frac_line_56 = newl; Line(frac_line_56) = {p43, p45};
Physical Line("FRACTURE_TIP_56") = {frac_line_56};

frac_line_57 = newl; Line(frac_line_57) = {p45, p46};
Physical Line("FRACTURE_LINE_57") = {frac_line_57};

frac_line_58 = newl; Line(frac_line_58) = {p47, p48};
Physical Line("FRACTURE_LINE_58") = {frac_line_58};

frac_line_59 = newl; Line(frac_line_59) = {p47, p49};
Physical Line("FRACTURE_TIP_59") = {frac_line_59};

frac_line_60 = newl; Line(frac_line_60) = {p48, p52};
Physical Line("FRACTURE_TIP_60") = {frac_line_60};

frac_line_61 = newl; Line(frac_line_61) = {p49, p50};
Physical Line("FRACTURE_LINE_61") = {frac_line_61};

frac_line_62 = newl; Line(frac_line_62) = {p50, p54};
Physical Line("FRACTURE_TIP_62") = {frac_line_62};

frac_line_63 = newl; Line(frac_line_63) = {p51, p52};
Physical Line("FRACTURE_LINE_63") = {frac_line_63};

frac_line_64 = newl; Line(frac_line_64) = {p53, p54};
Physical Line("FRACTURE_LINE_64") = {frac_line_64};

// End of line specification 

// Start domain specification
// Start boundary surface specification
frac_loop_5 = newll; 
Line Loop(frac_loop_5) = { frac_line_43, frac_line_46, frac_line_48, -frac_line_44};
boundary_surface_5 = news; Plane Surface(boundary_surface_5) = {frac_loop_5};
Physical Surface("DOMAIN_BOUNDARY_SURFACE_5") = {boundary_surface_5};

frac_loop_6 = newll; 
Line Loop(frac_loop_6) = { frac_line_51, frac_line_53, frac_line_54, -frac_line_52};
boundary_surface_6 = news; Plane Surface(boundary_surface_6) = {frac_loop_6};
Physical Surface("DOMAIN_BOUNDARY_SURFACE_6") = {boundary_surface_6};

frac_loop_7 = newll; 
Line Loop(frac_loop_7) = { frac_line_43, frac_line_47, -frac_line_51, -frac_line_45};
boundary_surface_7 = news; Plane Surface(boundary_surface_7) = {frac_loop_7};
Physical Surface("DOMAIN_BOUNDARY_SURFACE_7") = {boundary_surface_7};

frac_loop_8 = newll; 
Line Loop(frac_loop_8) = { frac_line_48, frac_line_50, -frac_line_54, -frac_line_49};
boundary_surface_8 = news; Plane Surface(boundary_surface_8) = {frac_loop_8};
Physical Surface("DOMAIN_BOUNDARY_SURFACE_8") = {boundary_surface_8};

frac_loop_9 = newll; 
Line Loop(frac_loop_9) = { frac_line_46, frac_line_49, -frac_line_53, -frac_line_47};
boundary_surface_9 = news; Plane Surface(boundary_surface_9) = {frac_loop_9};
Physical Surface("DOMAIN_BOUNDARY_SURFACE_9") = {boundary_surface_9};

frac_loop_10 = newll; 
Line Loop(frac_loop_10) = { frac_line_44, frac_line_50, -frac_line_52, -frac_line_45};
boundary_surface_10 = news; Plane Surface(boundary_surface_10) = {frac_loop_10};
Physical Surface("DOMAIN_BOUNDARY_SURFACE_10") = {boundary_surface_10};

domain_loop = newsl;
Surface Loop(domain_loop) = { boundary_surface_5, boundary_surface_6, boundary_surface_7, boundary_surface_8, boundary_surface_9, boundary_surface_10};
Volume(1) = {domain_loop};
Physical Volume("DOMAIN") = {1};
// End of domain specification

// Start fracture specification
frac_loop_0 = newll; 
Line Loop(frac_loop_0) = { frac_line_0, frac_line_2, frac_line_3, frac_line_4, frac_line_5, frac_line_56, -frac_line_7, frac_line_6, frac_line_8, frac_line_9, -frac_line_1};
fracture_0 = news; Plane Surface(fracture_0) = {frac_loop_0};
Physical Surface("FRACTURE_0") = {fracture_0};
Surface{fracture_0} In Volume{1};

Line{frac_line_55} In Surface{fracture_0};
Line{frac_line_57} In Surface{fracture_0};

frac_loop_1 = newll; 
Line Loop(frac_loop_1) = { frac_line_10, frac_line_12, frac_line_13, frac_line_14, frac_line_15, frac_line_59, -frac_line_17, frac_line_16, frac_line_18, -frac_line_11};
fracture_1 = news; Plane Surface(fracture_1) = {frac_loop_1};
Physical Surface("FRACTURE_1") = {fracture_1};
Surface{fracture_1} In Volume{1};

Line{frac_line_58} In Surface{fracture_1};
Line{frac_line_61} In Surface{fracture_1};

frac_loop_2 = newll; 
Line Loop(frac_loop_2) = { frac_line_19, frac_line_21, frac_line_22, frac_line_23, frac_line_24, frac_line_25, -frac_line_20};
fracture_2 = news; Plane Surface(fracture_2) = {frac_loop_2};
Physical Surface("FRACTURE_2") = {fracture_2};
Surface{fracture_2} In Volume{1};

Line{frac_line_63} In Surface{fracture_2};
Line{frac_line_64} In Surface{fracture_2};

frac_loop_3 = newll; 
Line Loop(frac_loop_3) = { frac_line_26, frac_line_28, frac_line_29, -frac_line_30, frac_line_31, -frac_line_60, -frac_line_27};
fracture_3 = news; Plane Surface(fracture_3) = {frac_loop_3};
Physical Surface("FRACTURE_3") = {fracture_3};
Surface{fracture_3} In Volume{1};

Line{frac_line_55} In Surface{fracture_3};
Line{frac_line_58} In Surface{fracture_3};
Line{frac_line_63} In Surface{fracture_3};

frac_loop_4 = newll; 
Line Loop(frac_loop_4) = { frac_line_32, -frac_line_35, frac_line_34, frac_line_36, frac_line_37, frac_line_38, frac_line_39, frac_line_40, -frac_line_41, frac_line_42, frac_line_62, -frac_line_33};
fracture_4 = news; Plane Surface(fracture_4) = {frac_loop_4};
Physical Surface("FRACTURE_4") = {fracture_4};
Surface{fracture_4} In Volume{1};

Line{frac_line_57} In Surface{fracture_4};
Line{frac_line_61} In Surface{fracture_4};
Line{frac_line_64} In Surface{fracture_4};

// End of fracture specification

// Start physical point specification
Physical Point("DOMAIN_BOUNDARY_POINT_0") = {p35};
Physical Point("DOMAIN_BOUNDARY_POINT_1") = {p36};
Physical Point("DOMAIN_BOUNDARY_POINT_2") = {p37};
Physical Point("DOMAIN_BOUNDARY_POINT_3") = {p38};
Physical Point("DOMAIN_BOUNDARY_POINT_4") = {p39};
Physical Point("DOMAIN_BOUNDARY_POINT_5") = {p40};
Physical Point("DOMAIN_BOUNDARY_POINT_6") = {p41};
Physical Point("DOMAIN_BOUNDARY_POINT_7") = {p42};
// End of physical point specification

