Geometry.Tolerance = 1.6666666666666668e-12;
// Define points
p0 = newp; Point(p0) = {828.2165091472813, 2067.7291643296976, 312.22246846093105, 60.0 };
p1 = newp; Point(p1) = {568.4213587541697, 1949.1568736517154, 472.74470723709754, 98.78721956879934 };
p2 = newp; Point(p2) = {189.5970588287389, 1776.2588617424358, 706.8126820812364, 97.68643038362701 };
p3 = newp; Point(p3) = {274.8564553011488, 1823.8827442870418, 704.4803429907091, 97.68643038362701 };
p4 = newp; Point(p4) = {530.3425370546051, 1966.5912274880168, 697.491316558273, 114.367511341346 };
p5 = newp; Point(p5) = {1463.0979185471683, 2487.6063245796995, 671.97504588119, 193.7861962501682 };
p6 = newp; Point(p6) = {1118.5570861414728, 2216.565000391197, 227.16785311329207, 100.14735824552422 };
p7 = newp; Point(p7) = {1021.4962209524473, 2155.943352068155, 192.79879176015095, 80.15711459579106 };
p8 = newp; Point(p8) = {742.6001466189293, 2113.3162696364943, 256.2912822534547, 104.97657403936853 };
p9 = newp; Point(p9) = {654.078226137182, 2079.7148454491235, 329.08855475919825, 119.29527630127116 };
p10 = newp; Point(p10) = {514.9017631500569, 2026.8858134502912, 443.5423177065164, 98.78721956879934 };
p11 = newp; Point(p11) = {217.3877300045173, 1913.9545171678055, 688.2072552418972, 108.07586243923348 };
p12 = newp; Point(p12) = {464.2651328664941, 2059.413706417875, 687.6074048078594, 114.367511341346 };
p13 = newp; Point(p13) = {1509.5442198134738, 2675.2880098767664, 685.067637673537, 178.81306960174732 };
p14 = newp; Point(p14) = {1077.9027156790153, 2289.504586220578, 171.8819385880083, 100.14735824552422 };
p15 = newp; Point(p15) = {968.4517184572992, 2199.045707355713, 70.55899886542747, 90.5864111243692 };
p16 = newp; Point(p16) = {719.9990483031515, 2215.3233892318494, 246.10212115832564, 83.83180063059498 };
p17 = newp; Point(p17) = {474.79342870622946, 2176.0091344714333, 559.6663025990988, 77.44350977966138 };
p18 = newp; Point(p18) = {416.8167287570194, 2166.7136266616276, 633.8057798757426, 79.83926393646401 };
p19 = newp; Point(p19) = {367.8732056738052, 2158.8664242258565, 696.3938061112077, 79.83926393646401 };
p20 = newp; Point(p20) = {614.7926747061681, 2309.8397405111664, 692.1138836029745, 60.0 };
p21 = newp; Point(p21) = {1504.504209642048, 2853.8337053975797, 676.69227088394, 178.81306960174732 };
p22 = newp; Point(p22) = {1038.064592641665, 2360.252740603255, 102.042023695851, 107.09804436981067 };
p23 = newp; Point(p23) = {923.8330467396358, 2261.015210486378, 21.82653846906355, 90.5864111243692 };
p24 = newp; Point(p24) = {771.3900991091324, 2223.5630081570316, 180.38424403198582, 83.83180063059498 };
p25 = newp; Point(p25) = {996.0375698249558, 2002.3673470241922, 138.31723501881007, 163.877592857242 };
p26 = newp; Point(p26) = {1440.3924450093614, 2120.8649942876923, 660.1325644453917, 67.84420747749307 };
p27 = newp; Point(p27) = {1115.4149822463312, 2179.571055556778, 709.2551921629561, 84.03749693427054 };
p28 = newp; Point(p28) = {447.18015789847277, 2254.7501326857155, 675.3356252251109, 73.29482379539863 };
p29 = newp; Point(p29) = {497.9596505671023, 2335.564047012753, 684.5146642024323, 91.83188780996089 };
p30 = newp; Point(p30) = {1075.325058249877, 2253.426772751138, 708.5979839442047, 60.0 };
p31 = newp; Point(p31) = {1236.508772765807, 2223.973773528462, 694.7885358546989, 129.7867158471499 };
p32 = newp; Point(p32) = {1441.5245853972629, 2186.5113624641376, 677.2237636904358, 67.84420747749307 };
p33 = newp; Point(p33) = {1150.8299980590682, 2111.9372268675306, 300.1623536597887, 87.71017102923908 };
p34 = newp; Point(p34) = {1083.6576223520558, 2104.6183746496813, 244.23936691848868, 60.0 };
p35 = newp; Point(p35) = {1059.1008832388068, 2108.899409078327, 245.6941585007404, 60.0 };
p36 = newp; Point(p36) = {916.7875229530076, 2145.064760394161, 289.87144656022747, 60.0 };
p37 = newp; Point(p37) = {-2000.0, 0.0, 4000.0, 900.0 };
p38 = newp; Point(p38) = {-2000.0, 0.0, -2000.0, 900.0 };
p39 = newp; Point(p39) = {-2000.0, 6000.0, -2000.0, 900.0 };
p40 = newp; Point(p40) = {-2000.0, 6000.0, 4000.0, 900.0 };
p41 = newp; Point(p41) = {4000.0, 0.0, 4000.0, 900.0 };
p42 = newp; Point(p42) = {4000.0, 0.0, -2000.0, 900.0 };
p43 = newp; Point(p43) = {4000.0, 6000.0, -2000.0, 900.0 };
p44 = newp; Point(p44) = {4000.0, 6000.0, 4000.0, 900.0 };
p45 = newp; Point(p45) = {938.7707402918859, 2194.7295627760345, 686.318435873006, 115.49133693460882 };
p46 = newp; Point(p46) = {847.1990184173831, 2076.3929119153095, 300.49355481102145, 60.0 };
p47 = newp; Point(p47) = {1039.5700186171064, 2251.033655816322, 683.5609908656287, 60.0 };
p48 = newp; Point(p48) = {957.7835924629934, 2134.6466432657376, 277.1453387063177, 60.0 };
p49 = newp; Point(p49) = {738.3747388799623, 2220.9180020486347, 686.9413869211069, 121.48714284421065 };
p50 = newp; Point(p50) = {708.0254296818455, 2134.8048520193724, 420.11686548502246, 119.29527630127116 };
p51 = newp; Point(p51) = {843.0444607261252, 2282.5889881424296, 686.6870656371328, 121.48714284421065 };
p52 = newp; Point(p52) = {817.7857850412411, 2190.09462036684, 383.1564616646439, 128.33692197922963 };
p53 = newp; Point(p53) = {519.9230039125807, 2246.566273012718, 679.0280485241104, 73.29482379539863 };
p54 = newp; Point(p54) = {521.9936760516053, 2220.348403372537, 602.1358574689517, 77.44350977966138 };
p55 = newp; Point(p55) = {627.8000144932445, 2317.092670930781, 689.9306225508401, 60.0 };
p56 = newp; Point(p56) = {634.7362356318433, 2273.3527100916212, 555.6360599190783, 132.975834058875 };
// End of point specification

// Define lines 
frac_line_0 = newl; Line(frac_line_0) = {p0, p1};
Physical Line("FRACTURE_TIP_0") = {frac_line_0};

frac_line_1 = newl; Line(frac_line_1) = {p0, p46};
Physical Line("FRACTURE_TIP_1") = {frac_line_1};

frac_line_2 = newl; Line(frac_line_2) = {p1, p2};
Physical Line("FRACTURE_TIP_2") = {frac_line_2};

frac_line_3 = newl; Line(frac_line_3) = {p2, p3};
Physical Line("FRACTURE_TIP_3") = {frac_line_3};

frac_line_4 = newl; Line(frac_line_4) = {p3, p4};
Physical Line("FRACTURE_TIP_4") = {frac_line_4};

frac_line_5 = newl; Line(frac_line_5) = {p4, p45};
Physical Line("FRACTURE_TIP_5") = {frac_line_5};

frac_line_6 = newl; Line(frac_line_6) = {p5, p6};
Physical Line("FRACTURE_TIP_6") = {frac_line_6};

frac_line_7 = newl; Line(frac_line_7) = {p5, p47};
Physical Line("FRACTURE_TIP_7") = {frac_line_7};

frac_line_8 = newl; Line(frac_line_8) = {p6, p7};
Physical Line("FRACTURE_TIP_8") = {frac_line_8};

frac_line_9 = newl; Line(frac_line_9) = {p7, p46};
Physical Line("FRACTURE_TIP_9") = {frac_line_9};

frac_line_10 = newl; Line(frac_line_10) = {p8, p9};
Physical Line("FRACTURE_TIP_10") = {frac_line_10};

frac_line_11 = newl; Line(frac_line_11) = {p8, p15};
Physical Line("FRACTURE_TIP_11") = {frac_line_11};

frac_line_12 = newl; Line(frac_line_12) = {p9, p10};
Physical Line("FRACTURE_TIP_12") = {frac_line_12};

frac_line_13 = newl; Line(frac_line_13) = {p10, p11};
Physical Line("FRACTURE_TIP_13") = {frac_line_13};

frac_line_14 = newl; Line(frac_line_14) = {p11, p12};
Physical Line("FRACTURE_TIP_14") = {frac_line_14};

frac_line_15 = newl; Line(frac_line_15) = {p12, p49};
Physical Line("FRACTURE_TIP_15") = {frac_line_15};

frac_line_16 = newl; Line(frac_line_16) = {p13, p14};
Physical Line("FRACTURE_TIP_16") = {frac_line_16};

frac_line_17 = newl; Line(frac_line_17) = {p13, p51};
Physical Line("FRACTURE_TIP_17") = {frac_line_17};

frac_line_18 = newl; Line(frac_line_18) = {p14, p15};
Physical Line("FRACTURE_TIP_18") = {frac_line_18};

frac_line_19 = newl; Line(frac_line_19) = {p16, p17};
Physical Line("FRACTURE_TIP_19") = {frac_line_19};

frac_line_20 = newl; Line(frac_line_20) = {p16, p24};
Physical Line("FRACTURE_TIP_20") = {frac_line_20};

frac_line_21 = newl; Line(frac_line_21) = {p17, p18};
Physical Line("FRACTURE_TIP_21") = {frac_line_21};

frac_line_22 = newl; Line(frac_line_22) = {p18, p19};
Physical Line("FRACTURE_TIP_22") = {frac_line_22};

frac_line_23 = newl; Line(frac_line_23) = {p19, p20};
Physical Line("FRACTURE_TIP_23") = {frac_line_23};

frac_line_24 = newl; Line(frac_line_24) = {p20, p21};
Physical Line("FRACTURE_TIP_24") = {frac_line_24};

frac_line_25 = newl; Line(frac_line_25) = {p21, p22};
Physical Line("FRACTURE_TIP_25") = {frac_line_25};

frac_line_26 = newl; Line(frac_line_26) = {p22, p23};
Physical Line("FRACTURE_TIP_26") = {frac_line_26};

frac_line_27 = newl; Line(frac_line_27) = {p23, p24};
Physical Line("FRACTURE_TIP_27") = {frac_line_27};

frac_line_28 = newl; Line(frac_line_28) = {p25, p26};
Physical Line("FRACTURE_TIP_28") = {frac_line_28};

frac_line_29 = newl; Line(frac_line_29) = {p25, p50};
Physical Line("FRACTURE_TIP_29") = {frac_line_29};

frac_line_30 = newl; Line(frac_line_30) = {p26, p27};
Physical Line("FRACTURE_TIP_30") = {frac_line_30};

frac_line_31 = newl; Line(frac_line_31) = {p27, p53};
Physical Line("FRACTURE_TIP_31") = {frac_line_31};

frac_line_32 = newl; Line(frac_line_32) = {p28, p53};
Physical Line("FRACTURE_TIP_32") = {frac_line_32};

frac_line_33 = newl; Line(frac_line_33) = {p28, p54};
Physical Line("FRACTURE_TIP_33") = {frac_line_33};

frac_line_34 = newl; Line(frac_line_34) = {p29, p55};
Physical Line("FRACTURE_TIP_34") = {frac_line_34};

frac_line_35 = newl; Line(frac_line_35) = {p29, p56};
Physical Line("FRACTURE_TIP_35") = {frac_line_35};

frac_line_36 = newl; Line(frac_line_36) = {p30, p31};
Physical Line("FRACTURE_TIP_36") = {frac_line_36};

frac_line_37 = newl; Line(frac_line_37) = {p30, p55};
Physical Line("FRACTURE_TIP_37") = {frac_line_37};

frac_line_38 = newl; Line(frac_line_38) = {p31, p32};
Physical Line("FRACTURE_TIP_38") = {frac_line_38};

frac_line_39 = newl; Line(frac_line_39) = {p32, p33};
Physical Line("FRACTURE_TIP_39") = {frac_line_39};

frac_line_40 = newl; Line(frac_line_40) = {p33, p34};
Physical Line("FRACTURE_TIP_40") = {frac_line_40};

frac_line_41 = newl; Line(frac_line_41) = {p34, p35};
Physical Line("FRACTURE_TIP_41") = {frac_line_41};

frac_line_42 = newl; Line(frac_line_42) = {p35, p48};
Physical Line("FRACTURE_TIP_42") = {frac_line_42};

frac_line_43 = newl; Line(frac_line_43) = {p36, p48};
Physical Line("FRACTURE_TIP_43") = {frac_line_43};

frac_line_44 = newl; Line(frac_line_44) = {p36, p52};
Physical Line("FRACTURE_TIP_44") = {frac_line_44};

frac_line_45 = newl; Line(frac_line_45) = {p37, p38};
Physical Line("DOMAIN_BOUNDARY_45") = {frac_line_45};

frac_line_46 = newl; Line(frac_line_46) = {p37, p40};
Physical Line("DOMAIN_BOUNDARY_46") = {frac_line_46};

frac_line_47 = newl; Line(frac_line_47) = {p37, p41};
Physical Line("DOMAIN_BOUNDARY_47") = {frac_line_47};

frac_line_48 = newl; Line(frac_line_48) = {p38, p39};
Physical Line("DOMAIN_BOUNDARY_48") = {frac_line_48};

frac_line_49 = newl; Line(frac_line_49) = {p38, p42};
Physical Line("DOMAIN_BOUNDARY_49") = {frac_line_49};

frac_line_50 = newl; Line(frac_line_50) = {p39, p40};
Physical Line("DOMAIN_BOUNDARY_50") = {frac_line_50};

frac_line_51 = newl; Line(frac_line_51) = {p39, p43};
Physical Line("DOMAIN_BOUNDARY_51") = {frac_line_51};

frac_line_52 = newl; Line(frac_line_52) = {p40, p44};
Physical Line("DOMAIN_BOUNDARY_52") = {frac_line_52};

frac_line_53 = newl; Line(frac_line_53) = {p41, p42};
Physical Line("DOMAIN_BOUNDARY_53") = {frac_line_53};

frac_line_54 = newl; Line(frac_line_54) = {p41, p44};
Physical Line("DOMAIN_BOUNDARY_54") = {frac_line_54};

frac_line_55 = newl; Line(frac_line_55) = {p42, p43};
Physical Line("DOMAIN_BOUNDARY_55") = {frac_line_55};

frac_line_56 = newl; Line(frac_line_56) = {p43, p44};
Physical Line("DOMAIN_BOUNDARY_56") = {frac_line_56};

frac_line_57 = newl; Line(frac_line_57) = {p45, p46};
Physical Line("FRACTURE_LINE_57") = {frac_line_57};

frac_line_58 = newl; Line(frac_line_58) = {p45, p47};
Physical Line("FRACTURE_TIP_58") = {frac_line_58};

frac_line_59 = newl; Line(frac_line_59) = {p47, p48};
Physical Line("FRACTURE_LINE_59") = {frac_line_59};

frac_line_60 = newl; Line(frac_line_60) = {p49, p50};
Physical Line("FRACTURE_LINE_60") = {frac_line_60};

frac_line_61 = newl; Line(frac_line_61) = {p49, p51};
Physical Line("FRACTURE_TIP_61") = {frac_line_61};

frac_line_62 = newl; Line(frac_line_62) = {p50, p54};
Physical Line("FRACTURE_TIP_62") = {frac_line_62};

frac_line_63 = newl; Line(frac_line_63) = {p51, p52};
Physical Line("FRACTURE_LINE_63") = {frac_line_63};

frac_line_64 = newl; Line(frac_line_64) = {p52, p56};
Physical Line("FRACTURE_TIP_64") = {frac_line_64};

frac_line_65 = newl; Line(frac_line_65) = {p53, p54};
Physical Line("FRACTURE_LINE_65") = {frac_line_65};

frac_line_66 = newl; Line(frac_line_66) = {p55, p56};
Physical Line("FRACTURE_LINE_66") = {frac_line_66};

// End of line specification 

// Start domain specification
// Start boundary surface specification
frac_loop_5 = newll; 
Line Loop(frac_loop_5) = { frac_line_45, frac_line_48, frac_line_50, -frac_line_46};
boundary_surface_5 = news; Plane Surface(boundary_surface_5) = {frac_loop_5};
Physical Surface("DOMAIN_BOUNDARY_SURFACE_5") = {boundary_surface_5};

frac_loop_6 = newll; 
Line Loop(frac_loop_6) = { frac_line_53, frac_line_55, frac_line_56, -frac_line_54};
boundary_surface_6 = news; Plane Surface(boundary_surface_6) = {frac_loop_6};
Physical Surface("DOMAIN_BOUNDARY_SURFACE_6") = {boundary_surface_6};

frac_loop_7 = newll; 
Line Loop(frac_loop_7) = { frac_line_45, frac_line_49, -frac_line_53, -frac_line_47};
boundary_surface_7 = news; Plane Surface(boundary_surface_7) = {frac_loop_7};
Physical Surface("DOMAIN_BOUNDARY_SURFACE_7") = {boundary_surface_7};

frac_loop_8 = newll; 
Line Loop(frac_loop_8) = { frac_line_50, frac_line_52, -frac_line_56, -frac_line_51};
boundary_surface_8 = news; Plane Surface(boundary_surface_8) = {frac_loop_8};
Physical Surface("DOMAIN_BOUNDARY_SURFACE_8") = {boundary_surface_8};

frac_loop_9 = newll; 
Line Loop(frac_loop_9) = { frac_line_48, frac_line_51, -frac_line_55, -frac_line_49};
boundary_surface_9 = news; Plane Surface(boundary_surface_9) = {frac_loop_9};
Physical Surface("DOMAIN_BOUNDARY_SURFACE_9") = {boundary_surface_9};

frac_loop_10 = newll; 
Line Loop(frac_loop_10) = { frac_line_46, frac_line_52, -frac_line_54, -frac_line_47};
boundary_surface_10 = news; Plane Surface(boundary_surface_10) = {frac_loop_10};
Physical Surface("DOMAIN_BOUNDARY_SURFACE_10") = {boundary_surface_10};

domain_loop = newsl;
Surface Loop(domain_loop) = { boundary_surface_5, boundary_surface_6, boundary_surface_7, boundary_surface_8, boundary_surface_9, boundary_surface_10};
Volume(1) = {domain_loop};
Physical Volume("DOMAIN") = {1};
// End of domain specification

// Start fracture specification
frac_loop_0 = newll; 
Line Loop(frac_loop_0) = { frac_line_0, frac_line_2, frac_line_3, frac_line_4, frac_line_5, frac_line_58, -frac_line_7, frac_line_6, frac_line_8, frac_line_9, -frac_line_1};
fracture_0 = news; Plane Surface(fracture_0) = {frac_loop_0};
Physical Surface("FRACTURE_0") = {fracture_0};
Surface{fracture_0} In Volume{1};

Line{frac_line_57} In Surface{fracture_0};
Line{frac_line_59} In Surface{fracture_0};

frac_loop_1 = newll; 
Line Loop(frac_loop_1) = { frac_line_10, frac_line_12, frac_line_13, frac_line_14, frac_line_15, frac_line_61, -frac_line_17, frac_line_16, frac_line_18, -frac_line_11};
fracture_1 = news; Plane Surface(fracture_1) = {frac_loop_1};
Physical Surface("FRACTURE_1") = {fracture_1};
Surface{fracture_1} In Volume{1};

Line{frac_line_60} In Surface{fracture_1};
Line{frac_line_63} In Surface{fracture_1};

frac_loop_2 = newll; 
Line Loop(frac_loop_2) = { frac_line_19, frac_line_21, frac_line_22, frac_line_23, frac_line_24, frac_line_25, frac_line_26, frac_line_27, -frac_line_20};
fracture_2 = news; Plane Surface(fracture_2) = {frac_loop_2};
Physical Surface("FRACTURE_2") = {fracture_2};
Surface{fracture_2} In Volume{1};

Line{frac_line_65} In Surface{fracture_2};
Line{frac_line_66} In Surface{fracture_2};

frac_loop_3 = newll; 
Line Loop(frac_loop_3) = { frac_line_28, frac_line_30, frac_line_31, -frac_line_32, frac_line_33, -frac_line_62, -frac_line_29};
fracture_3 = news; Plane Surface(fracture_3) = {frac_loop_3};
Physical Surface("FRACTURE_3") = {fracture_3};
Surface{fracture_3} In Volume{1};

Line{frac_line_57} In Surface{fracture_3};
Line{frac_line_60} In Surface{fracture_3};
Line{frac_line_65} In Surface{fracture_3};

frac_loop_4 = newll; 
Line Loop(frac_loop_4) = { frac_line_34, -frac_line_37, frac_line_36, frac_line_38, frac_line_39, frac_line_40, frac_line_41, frac_line_42, -frac_line_43, frac_line_44, frac_line_64, -frac_line_35};
fracture_4 = news; Plane Surface(fracture_4) = {frac_loop_4};
Physical Surface("FRACTURE_4") = {fracture_4};
Surface{fracture_4} In Volume{1};

Line{frac_line_59} In Surface{fracture_4};
Line{frac_line_63} In Surface{fracture_4};
Line{frac_line_66} In Surface{fracture_4};

// End of fracture specification

// Start physical point specification
Physical Point("DOMAIN_BOUNDARY_POINT_0") = {p37};
Physical Point("DOMAIN_BOUNDARY_POINT_1") = {p38};
Physical Point("DOMAIN_BOUNDARY_POINT_2") = {p39};
Physical Point("DOMAIN_BOUNDARY_POINT_3") = {p40};
Physical Point("DOMAIN_BOUNDARY_POINT_4") = {p41};
Physical Point("DOMAIN_BOUNDARY_POINT_5") = {p42};
Physical Point("DOMAIN_BOUNDARY_POINT_6") = {p43};
Physical Point("DOMAIN_BOUNDARY_POINT_7") = {p44};
// End of physical point specification

