Geometry.Tolerance = 2.6737967914438505e-12;
// Define points
p0 = newp; Point(p0) = {942.5389321892109, 2119.9067032692324, 241.58492476068068, 41.40300155723826 };
p1 = newp; Point(p1) = {189.5970588287389, 1776.2588617424358, 706.8126820812364, 62.99999999999999 };
p2 = newp; Point(p2) = {1463.0979185471683, 2487.6063245796995, 671.97504588119, 62.99999999999999 };
p3 = newp; Point(p3) = {1118.5570861414728, 2216.565000391197, 227.16785311329207, 62.99999999999999 };
p4 = newp; Point(p4) = {1021.4962209524473, 2155.943352068155, 192.79879176015095, 62.99999999999999 };
p5 = newp; Point(p5) = {217.3877300045173, 1913.9545171678055, 688.2072552418972, 62.99999999999999 };
p6 = newp; Point(p6) = {1509.5442198134738, 2675.2880098767664, 685.067637673537, 62.99999999999999 };
p7 = newp; Point(p7) = {1077.9027156790153, 2289.504586220578, 171.8819385880083, 62.99999999999999 };
p8 = newp; Point(p8) = {968.4517184572992, 2199.045707355713, 70.55899886542747, 62.99999999999999 };
p9 = newp; Point(p9) = {367.8732056738052, 2158.8664242258565, 696.3938061112077, 62.99999999999999 };
p10 = newp; Point(p10) = {517.7650022400135, 2250.5143679876237, 693.7956907157824, 15.437865171419565 };
p11 = newp; Point(p11) = {1504.504209642048, 2853.8337053975797, 676.69227088394, 62.99999999999999 };
p12 = newp; Point(p12) = {1038.064592641665, 2360.252740603255, 102.042023695851, 62.99999999999999 };
p13 = newp; Point(p13) = {923.8330467396358, 2261.015210486378, 21.82653846906355, 62.99999999999999 };
p14 = newp; Point(p14) = {771.3900991091324, 2223.5630081570316, 180.38424403198582, 62.99999999999999 };
p15 = newp; Point(p15) = {996.0375698249558, 2002.3673470241922, 138.31723501881007, 62.99999999999999 };
p16 = newp; Point(p16) = {1440.3924450093614, 2120.8649942876923, 660.1325644453917, 29.578701375235614 };
p17 = newp; Point(p17) = {1411.6016429473354, 2126.065953687981, 664.4844965435701, 29.578701375235614 };
p18 = newp; Point(p18) = {1115.4149822463312, 2179.571055556778, 709.2551921629561, 62.99999999999999 };
p19 = newp; Point(p19) = {938.5947094639382, 2199.464039940584, 700.2798037813888, 14.74333933500978 };
p20 = newp; Point(p20) = {447.18015789847277, 2254.7501326857155, 675.3356252251109, 62.99999999999999 };
p21 = newp; Point(p21) = {497.9596505671023, 2335.564047012753, 684.5146642024323, 62.99999999999999 };
p22 = newp; Point(p22) = {1039.6501932930532, 2258.501957596321, 707.109898291571, 24.704918546949255 };
p23 = newp; Point(p23) = {1075.325058249877, 2253.426772751138, 708.5979839442047, 36.06477353055142 };
p24 = newp; Point(p24) = {1441.5245853972629, 2186.5113624641376, 677.2237636904358, 37.37105003099147 };
p25 = newp; Point(p25) = {1418.981997087392, 2180.7283375626007, 647.9836591130108, 37.37105003099147 };
p26 = newp; Point(p26) = {1150.8299980590682, 2111.9372268675306, 300.1623536597887, 62.99999999999999 };
p27 = newp; Point(p27) = {1083.6576223520558, 2104.6183746496813, 244.23936691848868, 24.969523627879166 };
p28 = newp; Point(p28) = {1059.1008832388068, 2108.899409078327, 245.6941585007404, 24.969523627879166 };
p29 = newp; Point(p29) = {916.7875229530076, 2145.064760394161, 289.87144656022747, 44.17203528114231 };
p30 = newp; Point(p30) = {-1020.0, 600.0, 1820.0, 210.0 };
p31 = newp; Point(p31) = {-1020.0, 600.0, -1080.0, 210.0 };
p32 = newp; Point(p32) = {-1020.0, 4020.0, -1080.0, 210.0 };
p33 = newp; Point(p33) = {-1020.0, 4020.0, 1820.0, 210.0 };
p34 = newp; Point(p34) = {2720.0, 600.0, 1820.0, 210.0 };
p35 = newp; Point(p35) = {2720.0, 600.0, -1080.0, 210.0 };
p36 = newp; Point(p36) = {2720.0, 4020.0, -1080.0, 210.0 };
p37 = newp; Point(p37) = {2720.0, 4020.0, 1820.0, 210.0 };
p38 = newp; Point(p38) = {938.7707402918859, 2194.7295627760345, 686.318435873006, 14.74333933500978 };
p39 = newp; Point(p39) = {847.1990184173831, 2076.3929119153095, 300.49355481102145, 62.99999999999999 };
p40 = newp; Point(p40) = {1039.5700186171064, 2251.033655816322, 683.5609908656287, 24.704918546949255 };
p41 = newp; Point(p41) = {957.7835924629934, 2134.6466432657376, 277.1453387063177, 41.40300155723826 };
p42 = newp; Point(p42) = {738.3747388799623, 2220.9180020486347, 686.9413869211069, 62.99999999999999 };
p43 = newp; Point(p43) = {708.0254296818455, 2134.8048520193724, 420.11686548502246, 62.99999999999999 };
p44 = newp; Point(p44) = {843.0444607261252, 2282.5889881424296, 686.6870656371328, 62.99999999999999 };
p45 = newp; Point(p45) = {817.7857850412411, 2190.09462036684, 383.1564616646439, 62.99999999999999 };
p46 = newp; Point(p46) = {519.9230039125807, 2246.566273012718, 679.0280485241104, 15.437865171419565 };
p47 = newp; Point(p47) = {521.9936760516053, 2220.348403372537, 602.1358574689517, 62.99999999999999 };
p48 = newp; Point(p48) = {627.8000144932445, 2317.092670930781, 689.9306225508401, 62.99999999999999 };
p49 = newp; Point(p49) = {634.7362356318433, 2273.3527100916212, 555.6360599190783, 62.99999999999999 };
// End of point specification

// Define lines 
frac_line_0 = newl; Line(frac_line_0) = {p0, p4};
Physical Line("FRACTURE_TIP_0") = {frac_line_0};

frac_line_1 = newl; Line(frac_line_1) = {p0, p39};
Physical Line("FRACTURE_TIP_1") = {frac_line_1};

frac_line_2 = newl; Line(frac_line_2) = {p1, p38};
Physical Line("FRACTURE_TIP_2") = {frac_line_2};

frac_line_3 = newl; Line(frac_line_3) = {p1, p39};
Physical Line("FRACTURE_TIP_3") = {frac_line_3};

frac_line_4 = newl; Line(frac_line_4) = {p2, p3};
Physical Line("FRACTURE_TIP_4") = {frac_line_4};

frac_line_5 = newl; Line(frac_line_5) = {p2, p40};
Physical Line("FRACTURE_TIP_5") = {frac_line_5};

frac_line_6 = newl; Line(frac_line_6) = {p3, p4};
Physical Line("FRACTURE_TIP_6") = {frac_line_6};

frac_line_7 = newl; Line(frac_line_7) = {p5, p8};
Physical Line("FRACTURE_TIP_7") = {frac_line_7};

frac_line_8 = newl; Line(frac_line_8) = {p5, p42};
Physical Line("FRACTURE_TIP_8") = {frac_line_8};

frac_line_9 = newl; Line(frac_line_9) = {p6, p7};
Physical Line("FRACTURE_TIP_9") = {frac_line_9};

frac_line_10 = newl; Line(frac_line_10) = {p6, p44};
Physical Line("FRACTURE_TIP_10") = {frac_line_10};

frac_line_11 = newl; Line(frac_line_11) = {p7, p8};
Physical Line("FRACTURE_TIP_11") = {frac_line_11};

frac_line_12 = newl; Line(frac_line_12) = {p9, p10};
Physical Line("FRACTURE_TIP_12") = {frac_line_12};

frac_line_13 = newl; Line(frac_line_13) = {p9, p14};
Physical Line("FRACTURE_TIP_13") = {frac_line_13};

frac_line_14 = newl; Line(frac_line_14) = {p10, p11};
Physical Line("FRACTURE_TIP_14") = {frac_line_14};

frac_line_15 = newl; Line(frac_line_15) = {p11, p12};
Physical Line("FRACTURE_TIP_15") = {frac_line_15};

frac_line_16 = newl; Line(frac_line_16) = {p12, p13};
Physical Line("FRACTURE_TIP_16") = {frac_line_16};

frac_line_17 = newl; Line(frac_line_17) = {p13, p14};
Physical Line("FRACTURE_TIP_17") = {frac_line_17};

frac_line_18 = newl; Line(frac_line_18) = {p15, p16};
Physical Line("FRACTURE_TIP_18") = {frac_line_18};

frac_line_19 = newl; Line(frac_line_19) = {p15, p43};
Physical Line("FRACTURE_TIP_19") = {frac_line_19};

frac_line_20 = newl; Line(frac_line_20) = {p16, p17};
Physical Line("FRACTURE_TIP_20") = {frac_line_20};

frac_line_21 = newl; Line(frac_line_21) = {p17, p18};
Physical Line("FRACTURE_TIP_21") = {frac_line_21};

frac_line_22 = newl; Line(frac_line_22) = {p18, p19};
Physical Line("FRACTURE_TIP_22") = {frac_line_22};

frac_line_23 = newl; Line(frac_line_23) = {p19, p46};
Physical Line("FRACTURE_TIP_23") = {frac_line_23};

frac_line_24 = newl; Line(frac_line_24) = {p20, p46};
Physical Line("FRACTURE_TIP_24") = {frac_line_24};

frac_line_25 = newl; Line(frac_line_25) = {p20, p47};
Physical Line("FRACTURE_TIP_25") = {frac_line_25};

frac_line_26 = newl; Line(frac_line_26) = {p21, p48};
Physical Line("FRACTURE_TIP_26") = {frac_line_26};

frac_line_27 = newl; Line(frac_line_27) = {p21, p49};
Physical Line("FRACTURE_TIP_27") = {frac_line_27};

frac_line_28 = newl; Line(frac_line_28) = {p22, p23};
Physical Line("FRACTURE_TIP_28") = {frac_line_28};

frac_line_29 = newl; Line(frac_line_29) = {p22, p48};
Physical Line("FRACTURE_TIP_29") = {frac_line_29};

frac_line_30 = newl; Line(frac_line_30) = {p23, p24};
Physical Line("FRACTURE_TIP_30") = {frac_line_30};

frac_line_31 = newl; Line(frac_line_31) = {p24, p25};
Physical Line("FRACTURE_TIP_31") = {frac_line_31};

frac_line_32 = newl; Line(frac_line_32) = {p25, p26};
Physical Line("FRACTURE_TIP_32") = {frac_line_32};

frac_line_33 = newl; Line(frac_line_33) = {p26, p27};
Physical Line("FRACTURE_TIP_33") = {frac_line_33};

frac_line_34 = newl; Line(frac_line_34) = {p27, p28};
Physical Line("FRACTURE_TIP_34") = {frac_line_34};

frac_line_35 = newl; Line(frac_line_35) = {p28, p41};
Physical Line("FRACTURE_TIP_35") = {frac_line_35};

frac_line_36 = newl; Line(frac_line_36) = {p29, p41};
Physical Line("FRACTURE_TIP_36") = {frac_line_36};

frac_line_37 = newl; Line(frac_line_37) = {p29, p45};
Physical Line("FRACTURE_TIP_37") = {frac_line_37};

frac_line_38 = newl; Line(frac_line_38) = {p30, p31};
Physical Line("DOMAIN_BOUNDARY_38") = {frac_line_38};

frac_line_39 = newl; Line(frac_line_39) = {p30, p33};
Physical Line("DOMAIN_BOUNDARY_39") = {frac_line_39};

frac_line_40 = newl; Line(frac_line_40) = {p30, p34};
Physical Line("DOMAIN_BOUNDARY_40") = {frac_line_40};

frac_line_41 = newl; Line(frac_line_41) = {p31, p32};
Physical Line("DOMAIN_BOUNDARY_41") = {frac_line_41};

frac_line_42 = newl; Line(frac_line_42) = {p31, p35};
Physical Line("DOMAIN_BOUNDARY_42") = {frac_line_42};

frac_line_43 = newl; Line(frac_line_43) = {p32, p33};
Physical Line("DOMAIN_BOUNDARY_43") = {frac_line_43};

frac_line_44 = newl; Line(frac_line_44) = {p32, p36};
Physical Line("DOMAIN_BOUNDARY_44") = {frac_line_44};

frac_line_45 = newl; Line(frac_line_45) = {p33, p37};
Physical Line("DOMAIN_BOUNDARY_45") = {frac_line_45};

frac_line_46 = newl; Line(frac_line_46) = {p34, p35};
Physical Line("DOMAIN_BOUNDARY_46") = {frac_line_46};

frac_line_47 = newl; Line(frac_line_47) = {p34, p37};
Physical Line("DOMAIN_BOUNDARY_47") = {frac_line_47};

frac_line_48 = newl; Line(frac_line_48) = {p35, p36};
Physical Line("DOMAIN_BOUNDARY_48") = {frac_line_48};

frac_line_49 = newl; Line(frac_line_49) = {p36, p37};
Physical Line("DOMAIN_BOUNDARY_49") = {frac_line_49};

frac_line_50 = newl; Line(frac_line_50) = {p38, p39};
Physical Line("FRACTURE_LINE_50") = {frac_line_50};

frac_line_51 = newl; Line(frac_line_51) = {p38, p40};
Physical Line("FRACTURE_TIP_51") = {frac_line_51};

frac_line_52 = newl; Line(frac_line_52) = {p40, p41};
Physical Line("FRACTURE_LINE_52") = {frac_line_52};

frac_line_53 = newl; Line(frac_line_53) = {p42, p43};
Physical Line("FRACTURE_LINE_53") = {frac_line_53};

frac_line_54 = newl; Line(frac_line_54) = {p42, p44};
Physical Line("FRACTURE_TIP_54") = {frac_line_54};

frac_line_55 = newl; Line(frac_line_55) = {p43, p47};
Physical Line("FRACTURE_TIP_55") = {frac_line_55};

frac_line_56 = newl; Line(frac_line_56) = {p44, p45};
Physical Line("FRACTURE_LINE_56") = {frac_line_56};

frac_line_57 = newl; Line(frac_line_57) = {p45, p49};
Physical Line("FRACTURE_TIP_57") = {frac_line_57};

frac_line_58 = newl; Line(frac_line_58) = {p46, p47};
Physical Line("FRACTURE_LINE_58") = {frac_line_58};

frac_line_59 = newl; Line(frac_line_59) = {p48, p49};
Physical Line("FRACTURE_LINE_59") = {frac_line_59};

// End of line specification 

// Start domain specification
// Start boundary surface specification
frac_loop_5 = newll; 
Line Loop(frac_loop_5) = { frac_line_38, frac_line_41, frac_line_43, -frac_line_39};
boundary_surface_5 = news; Plane Surface(boundary_surface_5) = {frac_loop_5};
Physical Surface("DOMAIN_BOUNDARY_SURFACE_5") = {boundary_surface_5};

frac_loop_6 = newll; 
Line Loop(frac_loop_6) = { frac_line_46, frac_line_48, frac_line_49, -frac_line_47};
boundary_surface_6 = news; Plane Surface(boundary_surface_6) = {frac_loop_6};
Physical Surface("DOMAIN_BOUNDARY_SURFACE_6") = {boundary_surface_6};

frac_loop_7 = newll; 
Line Loop(frac_loop_7) = { frac_line_38, frac_line_42, -frac_line_46, -frac_line_40};
boundary_surface_7 = news; Plane Surface(boundary_surface_7) = {frac_loop_7};
Physical Surface("DOMAIN_BOUNDARY_SURFACE_7") = {boundary_surface_7};

frac_loop_8 = newll; 
Line Loop(frac_loop_8) = { frac_line_43, frac_line_45, -frac_line_49, -frac_line_44};
boundary_surface_8 = news; Plane Surface(boundary_surface_8) = {frac_loop_8};
Physical Surface("DOMAIN_BOUNDARY_SURFACE_8") = {boundary_surface_8};

frac_loop_9 = newll; 
Line Loop(frac_loop_9) = { frac_line_41, frac_line_44, -frac_line_48, -frac_line_42};
boundary_surface_9 = news; Plane Surface(boundary_surface_9) = {frac_loop_9};
Physical Surface("DOMAIN_BOUNDARY_SURFACE_9") = {boundary_surface_9};

frac_loop_10 = newll; 
Line Loop(frac_loop_10) = { frac_line_39, frac_line_45, -frac_line_47, -frac_line_40};
boundary_surface_10 = news; Plane Surface(boundary_surface_10) = {frac_loop_10};
Physical Surface("DOMAIN_BOUNDARY_SURFACE_10") = {boundary_surface_10};

domain_loop = newsl;
Surface Loop(domain_loop) = { boundary_surface_5, boundary_surface_6, boundary_surface_7, boundary_surface_8, boundary_surface_9, boundary_surface_10};
Volume(1) = {domain_loop};
Physical Volume("DOMAIN") = {1};
// End of domain specification

// Start fracture specification
frac_loop_0 = newll; 
Line Loop(frac_loop_0) = { frac_line_0, -frac_line_6, -frac_line_4, frac_line_5, -frac_line_51, -frac_line_2, frac_line_3, -frac_line_1};
fracture_0 = news; Plane Surface(fracture_0) = {frac_loop_0};
Physical Surface("FRACTURE_0") = {fracture_0};
Surface{fracture_0} In Volume{1};

Line{frac_line_50} In Surface{fracture_0};
Line{frac_line_52} In Surface{fracture_0};

frac_loop_1 = newll; 
Line Loop(frac_loop_1) = { frac_line_7, -frac_line_11, -frac_line_9, frac_line_10, -frac_line_54, -frac_line_8};
fracture_1 = news; Plane Surface(fracture_1) = {frac_loop_1};
Physical Surface("FRACTURE_1") = {fracture_1};
Surface{fracture_1} In Volume{1};

Line{frac_line_53} In Surface{fracture_1};
Line{frac_line_56} In Surface{fracture_1};

frac_loop_2 = newll; 
Line Loop(frac_loop_2) = { frac_line_12, frac_line_14, frac_line_15, frac_line_16, frac_line_17, -frac_line_13};
fracture_2 = news; Plane Surface(fracture_2) = {frac_loop_2};
Physical Surface("FRACTURE_2") = {fracture_2};
Surface{fracture_2} In Volume{1};

Line{frac_line_58} In Surface{fracture_2};
Line{frac_line_59} In Surface{fracture_2};

frac_loop_3 = newll; 
Line Loop(frac_loop_3) = { frac_line_18, frac_line_20, frac_line_21, frac_line_22, frac_line_23, -frac_line_24, frac_line_25, -frac_line_55, -frac_line_19};
fracture_3 = news; Plane Surface(fracture_3) = {frac_loop_3};
Physical Surface("FRACTURE_3") = {fracture_3};
Surface{fracture_3} In Volume{1};

Line{frac_line_50} In Surface{fracture_3};
Line{frac_line_53} In Surface{fracture_3};
Line{frac_line_58} In Surface{fracture_3};

frac_loop_4 = newll; 
Line Loop(frac_loop_4) = { frac_line_26, -frac_line_29, frac_line_28, frac_line_30, frac_line_31, frac_line_32, frac_line_33, frac_line_34, frac_line_35, -frac_line_36, frac_line_37, frac_line_57, -frac_line_27};
fracture_4 = news; Plane Surface(fracture_4) = {frac_loop_4};
Physical Surface("FRACTURE_4") = {fracture_4};
Surface{fracture_4} In Volume{1};

Line{frac_line_52} In Surface{fracture_4};
Line{frac_line_56} In Surface{fracture_4};
Line{frac_line_59} In Surface{fracture_4};

// End of fracture specification

// Start physical point specification
Physical Point("DOMAIN_BOUNDARY_POINT_0") = {p30};
Physical Point("DOMAIN_BOUNDARY_POINT_1") = {p31};
Physical Point("DOMAIN_BOUNDARY_POINT_2") = {p32};
Physical Point("DOMAIN_BOUNDARY_POINT_3") = {p33};
Physical Point("DOMAIN_BOUNDARY_POINT_4") = {p34};
Physical Point("DOMAIN_BOUNDARY_POINT_5") = {p35};
Physical Point("DOMAIN_BOUNDARY_POINT_6") = {p36};
Physical Point("DOMAIN_BOUNDARY_POINT_7") = {p37};
// End of physical point specification

